<svg id="Layer_1" data-name="Layer 1" xmlns="http://www.w3.org/2000/svg" viewBox="0 0 1104.09 690.99"><defs><style>.cls-1{fill:#2e70af;}.cls-2{fill:#fff;}.cls-3{fill:#333a65;}.cls-4,.cls-5{fill:none;stroke:#fff;stroke-width:2.15px;}.cls-4{stroke-linecap:round;stroke-linejoin:round;}.cls-5{stroke-miterlimit:10;}</style></defs><title>admiral_logo_final</title><polygon class="cls-1" points="509.29 214.06 509.29 201.68 543.53 188.57 577.04 200.95 577.04 214.06 543.53 203.86 509.29 214.06"/><path class="cls-2" d="M509.29,215.35a1.3,1.3,0,0,1-1.29-1.29V201.68a1.29,1.29,0,0,1,.83-1.2l34.24-13.11a1.35,1.35,0,0,1,.91,0l33.51,12.38a1.29,1.29,0,0,1,.84,1.21v13.11a1.29,1.29,0,0,1-1.66,1.24l-33.14-10.08-33.86,10.09A2.45,2.45,0,0,1,509.29,215.35Zm1.29-12.78v9.77l32.58-9.7a1.33,1.33,0,0,1,.74,0l31.84,9.69V201.86L543.53,190Z"/><polyline class="cls-3" points="543.53 203.86 509.29 214.06 509.29 201.68 543.53 188.57"/><path class="cls-2" d="M509.29,215.14a1,1,0,0,1-.64-.21,1.07,1.07,0,0,1-.43-.86V201.69a1.07,1.07,0,0,1,.69-1l34.24-13.11a1.08,1.08,0,1,1,.77,2l-33.55,12.85v10.2l32.85-9.79a1.08,1.08,0,0,1,.62,2.06l-34.24,10.2A3,3,0,0,1,509.29,215.14Z"/><path class="cls-3" d="M539.77,108c-2.76-1.15-6.56-1.73-11.3-1.73-28.67,0-82.57,21.12-83.11,21.33-11.1,3.68-21.43,5.53-30.78,5.53-25.27,0-35.17-13.25-35.58-13.82l-1-1.42,29.83-10L397,71.9l3.29,2.73c7.1,5.89,16.26,8.88,27.23,8.88,23.89,0,48.53-14.22,48.78-14.36,12.67-7,25.73-10.52,38.87-10.52A69.13,69.13,0,0,1,539.77,63V54.48a3.44,3.44,0,1,1,6.88,0V182.86l-3.18-1.17-3.7,1.42V108Z"/><path class="cls-2" d="M543.21,52.33a2.16,2.16,0,0,1,2.15,2.15V181l-1.89-.7-2.41.92V107.14c-3.15-1.53-7.49-2.18-12.59-2.18-29.25,0-83.58,21.42-83.58,21.42-11.95,4-22,5.44-30.3,5.44-24.9,0-34.53-13.28-34.53-13.28l29.35-9.87-10-33c8.16,6.77,18.08,9.18,28.06,9.18,24.53,0,49.43-14.54,49.43-14.54,14.28-7.87,27.39-10.35,38.22-10.35a67.94,67.94,0,0,1,25.91,5V54.47a2.12,2.12,0,0,1,2.13-2.14m0-2.58a4.73,4.73,0,0,0-4.73,4.73V61.2a71,71,0,0,0-23.33-3.86c-13.36,0-26.64,3.59-39.47,10.67h0l0,0c-.24.14-24.6,14.19-48.13,14.19-10.66,0-19.55-2.89-26.41-8.58l-6.58-5.46L397,76.38,406.2,107l-27,9.07-3.33,1.12,2.06,2.84c.42.59,10.7,14.35,36.62,14.35,9.48,0,19.95-1.88,31.11-5.58l.07,0,.07,0c.54-.21,54.22-21.24,82.64-21.24a31.21,31.21,0,0,1,10,1.32V185l3.5-1.34,1.5-.57,1,.36,3.47,1.28V54.47a4.7,4.7,0,0,0-4.71-4.72Z"/><polygon class="cls-1" points="478.7 259.17 478.7 235.13 543.53 211.09 606.18 232.94 606.18 259.17 544.26 234.01 478.7 259.17"/><path class="cls-2" d="M606.17,260.46a1.23,1.23,0,0,1-.49-.1l-61.45-25-65.08,25a1.29,1.29,0,0,1-1.75-1.2v-24a1.3,1.3,0,0,1,.84-1.21l64.83-24a1.3,1.3,0,0,1,.87,0l62.65,21.85a1.29,1.29,0,0,1,.87,1.22v26.22a1.28,1.28,0,0,1-.57,1.07A1.23,1.23,0,0,1,606.17,260.46ZM480,236v21.26l63.81-24.48a1.3,1.3,0,0,1,1,0l60.14,24.44V233.87l-61.34-21.4Z"/><polyline class="cls-3" points="544.26 234.01 478.7 259.17 478.7 235.13 543.53 211.09"/><path class="cls-2" d="M478.7,260.46a1.3,1.3,0,0,1-1.29-1.29v-24a1.3,1.3,0,0,1,.84-1.21l64.83-24a1.29,1.29,0,0,1,.9,2.42L480,236v21.26l63.81-24.48a1.29,1.29,0,0,1,.93,2.41l-65.56,25.16A1.6,1.6,0,0,1,478.7,260.46Z"/><path class="cls-1" d="M408.14,294.47l137-50.82,131.46,50.82L657.81,325.4l-6.63,45.29s0,15.47-3.31,18.78-101.64,64.07-205.48,0c0,0-3.31-6.63-4.42-19.89l-6.08-41.43Z"/><path class="cls-2" d="M543.73,420.37c-30,0-65.72-6.88-102.25-29.42a1.74,1.74,0,0,1-.63-.69c-.14-.28-3.47-7.06-4.59-20.46l-6-41-23.52-33.36a1.71,1.71,0,0,1,.8-2.6l137-50.82a1.71,1.71,0,0,1,1.22,0L677.2,292.88a1.75,1.75,0,0,1,1,1.05,1.69,1.69,0,0,1-.16,1.45L659.46,326l-6.56,44.83c0,3-.24,16.29-3.82,19.87-1.53,1.53-27.29,18-65.92,25.74A201.87,201.87,0,0,1,543.73,420.37Zm-100-32.08C497,421,548.39,419.83,582.19,413.12,620,405.6,645,389.81,646.65,388.26c1.93-1.93,2.8-11.43,2.81-17.56a2.11,2.11,0,0,1,0-.25l6.63-45.29a1.59,1.59,0,0,1,.23-.64l17.71-29.18L545.11,245.5,410.83,295.31l22.46,31.87a1.66,1.66,0,0,1,.3.74l6.08,41.43a.41.41,0,0,1,0,.11C440.59,380.33,443,386.66,443.73,388.29Z"/><path class="cls-3" d="M545.73,418.69c-31.2.37-66.93-6.75-103.34-29.21,0,0-3.31-6.63-4.42-19.89l-6.08-41.43-23.75-33.69,137-50.82"/><path class="cls-2" d="M543.42,420.43c-35.93,0-70.22-9.91-101.93-29.48a1.74,1.74,0,0,1-.63-.69c-.14-.28-3.47-7.06-4.59-20.46l-6-41-23.52-33.36a1.71,1.71,0,0,1,.8-2.6l137-50.82,1.2,3.22-134.89,50,22.46,31.87a1.66,1.66,0,0,1,.3.74l6.08,41.43a.41.41,0,0,1,0,.11c.91,10.88,3.35,17.21,4.05,18.84,31.72,19.46,66.07,29.1,102,28.68l0,3.44Z"/><line class="cls-4" x1="513.19" y1="342.09" x2="546.25" y2="335.59"/><line class="cls-4" x1="529.05" y1="364.58" x2="546.25" y2="334.78"/><line class="cls-4" x1="564" y1="365.12" x2="546.39" y2="334.78"/><line class="cls-4" x1="580.8" y1="341.28" x2="546.12" y2="334.78"/><line class="cls-4" x1="573.08" y1="312.01" x2="545.85" y2="334.78"/><line class="cls-4" x1="518.21" y1="312.83" x2="545.85" y2="334.78"/><circle class="cls-5" cx="546.14" cy="334.8" r="34.3"/><line class="cls-4" x1="545.85" y1="298.6" x2="545.85" y2="334.78"/><path class="cls-2" d="M545.88,307.08a27.67,27.67,0,1,1-27.67,27.67,27.67,27.67,0,0,1,27.67-27.67m0-2.15a29.82,29.82,0,1,0,29.82,29.82,29.86,29.86,0,0,0-29.82-29.82Z"/><circle class="cls-2" cx="546.29" cy="335.03" r="3.81"/><path class="cls-2" d="M548.94,300.14h-6.12a.59.59,0,0,1-.59-.59v-.34a.59.59,0,0,1,.59-.59h6.12a.59.59,0,0,1,.59.59v.34A.59.59,0,0,1,548.94,300.14Z"/><path class="cls-2" d="M544.12,298.63a.56.56,0,0,1,0-1,3.5,3.5,0,0,1,.25-2.26,4.12,4.12,0,0,0,.25-2.64s-2.94-8.93,1.51-8.93c4,0,1.38,8.93,1.38,8.93a5,5,0,0,0,.13,2.77,2.49,2.49,0,0,1,0,2.14.64.64,0,0,1,.13,1h-3.65Z"/><path class="cls-2" d="M520.74,310.85,517,315.66a.59.59,0,0,1-.82.1l-.27-.21a.59.59,0,0,1-.1-.82l3.79-4.81a.59.59,0,0,1,.82-.1l.27.21A.59.59,0,0,1,520.74,310.85Z"/><path class="cls-2" d="M516.57,313.7s-.86.28-.79-.62a3.46,3.46,0,0,1-1.62-1.6,4.15,4.15,0,0,0-1.92-1.83s-8.83-3.22-6.08-6.71c2.49-3.16,7.87,4.44,7.87,4.44a5.06,5.06,0,0,0,2.25,1.61,2.46,2.46,0,0,1,1.68,1.32.64.64,0,0,1,.87.52Z"/><path class="cls-2" d="M511.71,339.65l1.3,6a.59.59,0,0,1-.45.7l-.33.07a.59.59,0,0,1-.7-.45l-1.3-6a.59.59,0,0,1,.45-.7l.33-.07A.59.59,0,0,1,511.71,339.65Z"/><path class="cls-2" d="M511.25,344.68s-.33.84-1,.21a3.49,3.49,0,0,1-2.27.23,4.13,4.13,0,0,0-2.64.31s-8.11,4.76-9.05.41c-.85-3.93,8.44-3.24,8.44-3.24a5,5,0,0,0,2.68-.71,2.43,2.43,0,0,1,2.09-.45.64.64,0,0,1,1-.34Z"/><path class="cls-2" d="M580.65,338.15l-1.09,6a.59.59,0,0,0,.47.68l.33.06a.59.59,0,0,0,.68-.47l1.09-6a.59.59,0,0,0-.47-.68l-.33-.06A.58.58,0,0,0,580.65,338.15Z"/><path class="cls-2" d="M581.28,343.17s.36.83,1,.18a3.46,3.46,0,0,0,2.27.15,4.1,4.1,0,0,1,2.64.22s8.27,4.48,9.06.1c.71-4-8.54-2.95-8.54-2.95a5,5,0,0,1-2.7-.62,2.46,2.46,0,0,0-2.1-.38.63.63,0,0,0-1-.3Z"/><path class="cls-2" d="M570.62,310.15l3.86,4.76a.59.59,0,0,0,.82.09l.26-.21a.59.59,0,0,0,.09-.82l-3.86-4.76a.59.59,0,0,0-.82-.09l-.26.21A.57.57,0,0,0,570.62,310.15Z"/><path class="cls-2" d="M574.83,312.94s.87.27.78-.63a3.51,3.51,0,0,0,1.6-1.62,4.13,4.13,0,0,1,1.89-1.86s8.79-3.35,6-6.8c-2.54-3.13-7.81,4.55-7.81,4.55a5.17,5.17,0,0,1-2.23,1.65,2.46,2.46,0,0,0-1.66,1.35.64.64,0,0,0-.86.54Z"/><path class="cls-2" d="M532,366.84l-5.23-3.19a.59.59,0,0,0-.81.2l-.18.29a.59.59,0,0,0,.2.81l5.23,3.19a.59.59,0,0,0,.81-.2l.18-.29A.61.61,0,0,0,532,366.84Z"/><path class="cls-2" d="M527.13,365.62s-.91,0-.52.86a3.47,3.47,0,0,0-1,2.06,4.15,4.15,0,0,1-1.16,2.39s-7.16,6.09-3.36,8.41c3.44,2.1,5.83-6.9,5.83-6.9a5.1,5.1,0,0,1,1.55-2.3,2.46,2.46,0,0,0,1.11-1.83.63.63,0,0,0,.63-.79Z"/><path class="cls-2" d="M561,366.09l5.27-3.11a.59.59,0,0,1,.8.21l.17.29a.59.59,0,0,1-.21.8l-5.27,3.11a.59.59,0,0,1-.8-.21l-.17-.29A.59.59,0,0,1,561,366.09Z"/><path class="cls-2" d="M565.91,364.94s.91.05.51.87a3.5,3.5,0,0,1,.93,2.08,4.11,4.11,0,0,0,1.13,2.4s7.07,6.2,3.24,8.46c-3.47,2.05-5.73-7-5.73-7a5.11,5.11,0,0,0-1.52-2.32,2.47,2.47,0,0,1-1.09-1.84.64.64,0,0,1-.62-.8Z"/><path class="cls-2" d="M332.77,596.3l-8.73-22H280.57l-8.25,22H242.81L289.92,484h26.33L362.89,596.3ZM302.63,514l-14.28,38.55h28.24Z"/><path class="cls-2" d="M427.57,596.3V586h-.32a24.7,24.7,0,0,1-10.87,9.28,37,37,0,0,1-30.85-.24,36.44,36.44,0,0,1-11.82-9.28,40.72,40.72,0,0,1-7.38-13.4,49.88,49.88,0,0,1-2.54-15.86,47.59,47.59,0,0,1,2.62-15.78,41.27,41.27,0,0,1,7.46-13.25,34.78,34.78,0,0,1,27.21-12.37,30.14,30.14,0,0,1,14.75,3.33,32.75,32.75,0,0,1,9.36,7.3h.32V476.38h26V596.3Zm-.95-39.66a21.37,21.37,0,0,0-1.35-7.46,21,21,0,0,0-3.81-6.5,18.9,18.9,0,0,0-5.95-4.6,17.55,17.55,0,0,0-7.93-1.75,17.75,17.75,0,0,0-8.09,1.75A18.25,18.25,0,0,0,390.05,549a24,24,0,0,0-1.19,7.46,24.79,24.79,0,0,0,1.19,7.54,19.15,19.15,0,0,0,3.57,6.58,18,18,0,0,0,5.87,4.6,17.75,17.75,0,0,0,8.09,1.75,17.42,17.42,0,0,0,7.93-1.75,18.9,18.9,0,0,0,5.95-4.6,21,21,0,0,0,3.81-6.5A21.33,21.33,0,0,0,426.62,556.64Z"/><path class="cls-2" d="M570.37,596.3V553.15a41.79,41.79,0,0,0-.48-6.42,15.51,15.51,0,0,0-1.74-5.31,10.06,10.06,0,0,0-3.41-3.57,10.45,10.45,0,0,0-5.63-1.35,11.35,11.35,0,0,0-5.79,1.43,12.94,12.94,0,0,0-4.13,3.81,16.74,16.74,0,0,0-2.46,5.47,25.66,25.66,0,0,0-.79,6.42V596.3h-26v-45q0-6.82-2.7-10.79t-8.57-4a11,11,0,0,0-9.6,4.92,20.61,20.61,0,0,0-3.41,12.06V596.3H469.47v-79h25.22v11H495a27.61,27.61,0,0,1,3.57-4.92,22.23,22.23,0,0,1,5.16-4.2,29.21,29.21,0,0,1,6.74-2.93,31.44,31.44,0,0,1,22.68,2.38,23.94,23.94,0,0,1,9.28,10,30.21,30.21,0,0,1,10.15-9.84,29.2,29.2,0,0,1,15.07-3.65A28.39,28.39,0,0,1,581.22,518a25.32,25.32,0,0,1,8.8,7.61,31.74,31.74,0,0,1,4.84,10.47,45.13,45.13,0,0,1,1.51,11.34V596.3Z"/><path class="cls-2" d="M641.55,492.08a13.47,13.47,0,0,1-1.19,5.63,14.2,14.2,0,0,1-7.93,7.53,15.45,15.45,0,0,1-5.79,1.11,14.59,14.59,0,0,1-10.63-4.2,13.63,13.63,0,0,1-4.28-10.07,13.86,13.86,0,0,1,1.11-5.47,13,13,0,0,1,3.17-4.52,17,17,0,0,1,4.76-3.09,14.42,14.42,0,0,1,5.87-1.19,15.45,15.45,0,0,1,5.79,1.11,14.76,14.76,0,0,1,4.76,3,14.57,14.57,0,0,1,3.17,4.52A13.47,13.47,0,0,1,641.55,492.08ZM613.63,596.3v-79h26v79Z"/><path class="cls-2" d="M708.92,538.72a19.37,19.37,0,0,0-3.41-.63c-1.11-.1-2.2-.16-3.25-.16a18.62,18.62,0,0,0-8.8,1.9,18,18,0,0,0-5.71,4.59,17.28,17.28,0,0,0-3.09,5.85,19.72,19.72,0,0,0-.95,5.54v40.5h-26V517.4h25.06v11.42h.32a25.63,25.63,0,0,1,8.57-9.9,22,22,0,0,1,12.85-3.84c1.06,0,2.09.06,3.09.16a11.75,11.75,0,0,1,2.46.48Z"/><path class="cls-2" d="M718.14,528.09a45.5,45.5,0,0,1,16.26-10,55.77,55.77,0,0,1,19-3.33,50.63,50.63,0,0,1,16.89,2.46,25.19,25.19,0,0,1,11.18,7.61,32.52,32.52,0,0,1,6.27,13,77,77,0,0,1,2,18.64v39.82h-23.8V587.9h-.48a19.52,19.52,0,0,1-9.12,7.61,32.4,32.4,0,0,1-13.25,2.7,40.4,40.4,0,0,1-9.84-1.27,28.88,28.88,0,0,1-9.28-4.12,22.36,22.36,0,0,1-6.9-7.61,23.46,23.46,0,0,1-2.7-11.74q0-8.57,4.68-13.8a30.67,30.67,0,0,1,12.06-8.09,64.27,64.27,0,0,1,16.42-3.81,166.8,166.8,0,0,1,17.61-.95v-1.27q0-5.87-4.12-8.65a17.77,17.77,0,0,0-10.15-2.78,25.24,25.24,0,0,0-10.71,2.38,34.18,34.18,0,0,0-8.8,5.71Zm47.75,33.79h-3.33c-2.85,0-5.74.13-8.65.4a35.81,35.81,0,0,0-7.77,1.51,14.29,14.29,0,0,0-5.63,3.25,7.48,7.48,0,0,0-2.22,5.63,6.83,6.83,0,0,0,1,3.81,8,8,0,0,0,2.62,2.54,11.1,11.1,0,0,0,3.65,1.35,20.56,20.56,0,0,0,4,.4q7.94,0,12.14-4.36t4.2-11.82v-2.71Z"/><path class="cls-2" d="M807.07,596.3V476.37h26.49V596.3Z"/></svg>