<?xml version="1.0" encoding="utf-8"?>
<!-- Generator: Adobe Illustrator 23.1.1, SVG Export Plug-In . SVG Version: 6.00 Build 0)  -->
<svg version="1.1" id="Layer_1" xmlns="http://www.w3.org/2000/svg" xmlns:xlink="http://www.w3.org/1999/xlink" x="0px" y="0px"
	 viewBox="0 0 1104.09 690.99" style="enable-background:new 0 0 1104.09 690.99;" xml:space="preserve">
<style type="text/css">
	.st0{fill:#636464;stroke:#FFFFFF;stroke-miterlimit:10;}
	.st1{fill:#2E70AF;}
	.st2{fill:#FFFFFF;}
	.st3{fill:#333A65;}
	.st4{fill:none;stroke:#FFFFFF;stroke-width:2.1497;stroke-linecap:round;stroke-linejoin:round;stroke-miterlimit:10;}
	.st5{fill:none;stroke:#FFFFFF;stroke-width:2.1497;stroke-miterlimit:10;}
	.st6{fill:#636464;stroke:#FFFFFF;stroke-width:1.1779;stroke-miterlimit:10;}
	.st7{font-family:'AvenirNextforINTUIT-Bold';}
	.st8{font-size:12px;}
</style>
<rect x="-1153.4" class="st0" width="1133.4" height="488.33"/>
<text transform="matrix(1 0 0 1 -1126.7886 41.2632)" class="st2 st7 st8">On a dark background</text>
<g>
	<g>
		<g>
			<polygon class="st1" points="-644.11,218.58 -644.11,206.2 -609.87,193.09 -576.36,205.47 -576.36,218.58 -609.87,208.38 			"/>
			<path class="st2" d="M-644.11,219.87c-0.27,0-0.55-0.09-0.77-0.26c-0.33-0.24-0.52-0.63-0.52-1.03V206.2
				c0-0.53,0.33-1.01,0.83-1.2l34.24-13.11c0.29-0.11,0.61-0.11,0.91-0.01l33.51,12.38c0.51,0.19,0.84,0.67,0.84,1.21v13.11
				c0,0.41-0.19,0.79-0.52,1.04c-0.33,0.24-0.75,0.32-1.14,0.2l-33.14-10.08l-33.86,10.09
				C-643.86,219.85-643.98,219.87-644.11,219.87z M-642.82,207.08v9.77l32.58-9.7c0.24-0.07,0.5-0.07,0.74,0l31.84,9.69v-10.47
				l-32.21-11.9L-642.82,207.08z"/>
		</g>
		<g>
			<polyline class="st3" points="-609.87,208.38 -644.11,218.58 -644.11,206.2 -609.87,193.09 			"/>
			<path class="st2" d="M-644.11,219.66c-0.23,0-0.46-0.07-0.64-0.21c-0.27-0.2-0.43-0.52-0.43-0.86V206.2c0-0.45,0.28-0.84,0.69-1
				l34.24-13.11c0.55-0.21,1.18,0.06,1.39,0.62c0.21,0.55-0.07,1.18-0.62,1.39l-33.55,12.85v10.2l32.85-9.79
				c0.57-0.17,1.17,0.15,1.34,0.72s-0.15,1.17-0.72,1.34l-34.24,10.2C-643.9,219.64-644,219.66-644.11,219.66z"/>
		</g>
	</g>
	<g>
		<g>
			<path class="st3" d="M-613.63,112.5c-2.76-1.15-6.56-1.73-11.3-1.73c-28.67,0-82.57,21.12-83.11,21.33
				c-11.1,3.68-21.43,5.53-30.78,5.53c-25.27,0-35.17-13.25-35.58-13.82l-1.03-1.42l29.83-10.03l-10.82-35.94l3.29,2.73
				c7.1,5.89,16.26,8.88,27.23,8.88c23.89,0,48.53-14.22,48.78-14.36c12.67-6.99,25.73-10.52,38.87-10.52
				c10.54,0,18.97,2.25,24.62,4.41v-8.56c0-1.9,1.54-3.44,3.44-3.44s3.44,1.54,3.44,3.44v128.38l-3.18-1.17l-3.7,1.42V112.5z"/>
			<path class="st2" d="M-610.19,56.84c1.18,0,2.15,0.97,2.15,2.15v126.53l-1.89-0.7l-2.41,0.92v-74.08
				c-3.15-1.53-7.49-2.18-12.59-2.18c-29.25,0-83.58,21.42-83.58,21.42c-11.95,3.96-21.98,5.44-30.3,5.44
				c-24.9,0-34.53-13.28-34.53-13.28l29.35-9.87l-9.95-33.04c8.16,6.77,18.08,9.18,28.06,9.18c24.53,0,49.43-14.54,49.43-14.54
				c14.28-7.87,27.39-10.35,38.22-10.35c11.83,0,20.95,2.95,25.91,5.02V58.99C-612.34,57.81-611.37,56.84-610.19,56.84
				 M-610.19,54.26c-2.61,0-4.73,2.12-4.73,4.73v6.72c-5.69-1.98-13.63-3.86-23.33-3.86c-13.36,0-26.64,3.59-39.47,10.67l-0.03,0.01
				l-0.03,0.02c-0.24,0.14-24.6,14.19-48.13,14.19c-10.66,0-19.55-2.89-26.41-8.58l-6.58-5.46l2.47,8.19l9.23,30.65l-26.98,9.07
				l-3.33,1.12l2.06,2.84c0.42,0.59,10.7,14.35,36.62,14.35c9.48,0,19.95-1.88,31.11-5.58l0.07-0.02l0.07-0.03
				c0.54-0.21,54.22-21.24,82.64-21.24c4.13,0,7.49,0.44,10.01,1.32v72.36v3.75l3.5-1.34l1.5-0.57l0.98,0.36l3.47,1.28v-3.7V58.99
				C-605.46,56.39-607.58,54.26-610.19,54.26L-610.19,54.26z"/>
		</g>
	</g>
	<g>
		<g>
			<polygon class="st1" points="-674.7,263.69 -674.7,239.65 -609.87,215.61 -547.23,237.46 -547.23,263.69 -609.14,238.53 			"/>
			<path class="st2" d="M-547.23,264.98c-0.16,0-0.33-0.03-0.49-0.1l-61.45-24.96l-65.08,24.97c-0.4,0.15-0.84,0.1-1.19-0.14
				c-0.35-0.24-0.56-0.64-0.56-1.06v-24.04c0-0.54,0.34-1.02,0.84-1.21l64.83-24.04c0.28-0.1,0.59-0.11,0.87-0.01l62.65,21.85
				c0.52,0.18,0.87,0.67,0.87,1.22v26.22c0,0.43-0.21,0.83-0.57,1.07C-546.72,264.9-546.97,264.98-547.23,264.98z M-673.41,240.54
				v21.26l63.81-24.48c0.31-0.12,0.65-0.11,0.95,0.01l60.14,24.44v-23.39l-61.34-21.4L-673.41,240.54z"/>
		</g>
		<g>
			<polyline class="st3" points="-609.14,238.53 -674.7,263.69 -674.7,239.65 -609.87,215.61 			"/>
			<path class="st2" d="M-674.7,264.98c-0.26,0-0.51-0.08-0.73-0.23c-0.35-0.24-0.56-0.64-0.56-1.06v-24.04
				c0-0.54,0.34-1.02,0.84-1.21l64.83-24.04c0.67-0.25,1.41,0.09,1.66,0.76c0.25,0.67-0.09,1.41-0.76,1.66l-63.99,23.73v21.26
				l63.81-24.48c0.66-0.26,1.41,0.08,1.67,0.74c0.25,0.67-0.08,1.41-0.74,1.67l-65.56,25.16
				C-674.39,264.95-674.55,264.98-674.7,264.98z"/>
		</g>
	</g>
	<g>
		<g>
			<path class="st1" d="M-745.26,298.99l136.99-50.82l131.46,50.82l-18.78,30.93l-6.63,45.29c0,0,0,15.47-3.31,18.78
				s-101.64,64.07-205.48,0c0,0-3.31-6.63-4.42-19.89l-6.08-41.43L-745.26,298.99z"/>
			<path class="st2" d="M-609.67,424.89c-30,0-65.72-6.88-102.25-29.42c-0.27-0.17-0.49-0.41-0.63-0.69
				c-0.14-0.28-3.47-7.06-4.59-20.46l-6.01-40.97l-23.52-33.36c-0.31-0.44-0.4-0.99-0.24-1.5c0.16-0.51,0.54-0.92,1.04-1.1
				l136.99-50.82c0.39-0.15,0.83-0.14,1.22,0.01l131.46,50.82c0.47,0.18,0.84,0.57,1.01,1.05s0.11,1.01-0.16,1.45l-18.6,30.63
				l-6.56,44.83c-0.01,2.98-0.24,16.29-3.82,19.87c-1.53,1.53-27.29,18.02-65.92,25.74C-581.62,423.23-594.96,424.89-609.67,424.89z
				 M-709.67,392.81c53.23,32.66,104.66,31.54,138.46,24.83c37.85-7.52,62.82-23.31,64.46-24.86c1.93-1.93,2.8-11.43,2.81-17.56
				c0-0.08,0.01-0.17,0.02-0.25l6.63-45.29c0.03-0.23,0.11-0.45,0.23-0.64l17.71-29.18l-128.94-49.84l-134.28,49.81l22.46,31.87
				c0.16,0.22,0.26,0.47,0.3,0.74l6.08,41.43c0.01,0.04,0.01,0.07,0.01,0.11C-712.81,384.85-710.37,391.18-709.67,392.81z"/>
		</g>
		<g>
			<path class="st3" d="M-607.68,423.21c-31.2,0.37-66.93-6.75-103.34-29.21c0,0-3.31-6.63-4.42-19.89l-6.08-41.43l-23.75-33.69
				l136.99-50.82"/>
			<path class="st2" d="M-609.99,424.95c-35.93,0-70.22-9.91-101.93-29.48c-0.27-0.17-0.49-0.41-0.63-0.69
				c-0.14-0.28-3.47-7.06-4.59-20.46l-6.01-40.97l-23.52-33.36c-0.31-0.44-0.4-0.99-0.24-1.5s0.54-0.92,1.04-1.1l136.99-50.82
				l1.2,3.22l-134.89,50.04l22.46,31.87c0.16,0.22,0.26,0.47,0.3,0.74l6.08,41.43c0.01,0.04,0.01,0.07,0.01,0.11
				c0.91,10.88,3.35,17.21,4.05,18.84c31.72,19.46,66.07,29.1,101.97,28.68l0.04,3.44C-608.43,424.94-609.21,424.95-609.99,424.95z"
				/>
		</g>
	</g>
	<g>
		<line class="st4" x1="-640.21" y1="346.61" x2="-607.15" y2="340.11"/>
		<line class="st4" x1="-624.35" y1="369.1" x2="-607.15" y2="339.29"/>
		<line class="st4" x1="-589.4" y1="369.64" x2="-607.01" y2="339.29"/>
		<line class="st4" x1="-572.6" y1="345.8" x2="-607.28" y2="339.29"/>
		<line class="st4" x1="-580.32" y1="316.53" x2="-607.55" y2="339.29"/>
		<line class="st4" x1="-635.19" y1="317.35" x2="-607.55" y2="339.29"/>
		<circle class="st5" cx="-607.26" cy="339.31" r="34.3"/>
		<line class="st4" x1="-607.55" y1="303.12" x2="-607.55" y2="339.29"/>
		<g>
			<path class="st2" d="M-607.52,311.6c15.28,0,27.67,12.39,27.67,27.67c0,15.28-12.39,27.67-27.67,27.67s-27.67-12.39-27.67-27.67
				C-635.19,323.99-622.8,311.6-607.52,311.6 M-607.52,309.45c-16.44,0-29.82,13.38-29.82,29.82c0,16.44,13.38,29.82,29.82,29.82
				s29.82-13.38,29.82-29.82C-577.7,322.83-591.08,309.45-607.52,309.45L-607.52,309.45z"/>
		</g>
		<g>
			<circle class="st2" cx="-607.11" cy="339.55" r="3.81"/>
		</g>
		<g>
			<path class="st2" d="M-604.46,304.66h-6.12c-0.32,0-0.59-0.26-0.59-0.59v-0.34c0-0.32,0.26-0.59,0.59-0.59h6.12
				c0.32,0,0.59,0.26,0.59,0.59v0.34C-603.87,304.4-604.14,304.66-604.46,304.66z"/>
			<path class="st2" d="M-609.28,303.15c0,0-0.75-0.5,0-1.01c0,0-0.31-1.25,0.25-2.26c0.63-1.13,0.25-2.64,0.25-2.64
				s-2.94-8.93,1.51-8.93c4.03,0,1.38,8.93,1.38,8.93s-0.38,1.38,0.13,2.77c0.5,1.38,0,2.14,0,2.14s0.63,0.38,0.13,1.01H-609.28z"/>
		</g>
		<g>
			<path class="st2" d="M-632.66,315.37l-3.79,4.81c-0.2,0.25-0.57,0.3-0.82,0.1l-0.27-0.21c-0.25-0.2-0.3-0.57-0.1-0.82l3.79-4.81
				c0.2-0.25,0.57-0.3,0.82-0.1l0.27,0.21C-632.51,314.74-632.46,315.11-632.66,315.37z"/>
			<path class="st2" d="M-636.83,318.22c0,0-0.86,0.28-0.79-0.62c0,0-1.18-0.53-1.62-1.6c-0.5-1.19-1.92-1.83-1.92-1.83
				s-8.83-3.22-6.08-6.71c2.49-3.16,7.87,4.44,7.87,4.44s0.85,1.15,2.25,1.61c1.4,0.46,1.68,1.32,1.68,1.32s0.69-0.26,0.87,0.52
				L-636.83,318.22z"/>
		</g>
		<g>
			<path class="st2" d="M-641.69,344.16l1.3,5.99c0.07,0.32-0.13,0.63-0.45,0.7l-0.33,0.07c-0.32,0.07-0.63-0.13-0.7-0.45l-1.3-5.99
				c-0.07-0.32,0.13-0.63,0.45-0.7l0.33-0.07C-642.07,343.65-641.76,343.85-641.69,344.16z"/>
			<path class="st2" d="M-642.15,349.2c0,0-0.33,0.84-0.98,0.21c0,0-1.16,0.57-2.27,0.23c-1.24-0.38-2.64,0.31-2.64,0.31
				s-8.11,4.76-9.05,0.41c-0.85-3.93,8.44-3.24,8.44-3.24s1.43,0.08,2.68-0.71s2.09-0.45,2.09-0.45s0.24-0.69,0.96-0.34
				L-642.15,349.2z"/>
		</g>
		<g>
			<path class="st2" d="M-572.75,342.67l-1.09,6.03c-0.06,0.32,0.16,0.62,0.47,0.68l0.33,0.06c0.32,0.06,0.62-0.16,0.68-0.47
				l1.09-6.03c0.06-0.32-0.16-0.62-0.47-0.68l-0.33-0.06C-572.39,342.14-572.69,342.35-572.75,342.67z"/>
			<path class="st2" d="M-572.12,347.68c0,0,0.36,0.83,0.99,0.18c0,0,1.18,0.53,2.27,0.15c1.23-0.42,2.64,0.22,2.64,0.22
				s8.27,4.48,9.06,0.1c0.71-3.96-8.54-2.95-8.54-2.95s-1.43,0.13-2.7-0.62c-1.27-0.74-2.1-0.38-2.1-0.38s-0.26-0.69-0.97-0.3
				L-572.12,347.68z"/>
		</g>
		<g>
			<path class="st2" d="M-582.78,314.67l3.86,4.76c0.2,0.25,0.57,0.29,0.82,0.09l0.26-0.21c0.25-0.2,0.29-0.57,0.09-0.82l-3.86-4.76
				c-0.2-0.25-0.57-0.29-0.82-0.09l-0.26,0.21C-582.95,314.04-582.99,314.41-582.78,314.67z"/>
			<path class="st2" d="M-578.57,317.46c0,0,0.87,0.27,0.78-0.63c0,0,1.17-0.55,1.6-1.62c0.48-1.2,1.89-1.86,1.89-1.86
				s8.79-3.35,5.98-6.8c-2.54-3.13-7.81,4.55-7.81,4.55s-0.84,1.16-2.23,1.65c-1.39,0.48-1.66,1.35-1.66,1.35s-0.69-0.25-0.86,0.54
				L-578.57,317.46z"/>
		</g>
		<g>
			<path class="st2" d="M-621.36,371.36l-5.23-3.19c-0.28-0.17-0.64-0.08-0.81,0.2l-0.18,0.29c-0.17,0.28-0.08,0.64,0.2,0.81
				l5.23,3.19c0.28,0.17,0.64,0.08,0.81-0.2l0.18-0.29C-621,371.89-621.09,371.52-621.36,371.36z"/>
			<path class="st2" d="M-626.27,370.13c0,0-0.91,0.04-0.52,0.86c0,0-0.92,0.91-0.96,2.06c-0.05,1.29-1.16,2.39-1.16,2.39
				s-7.16,6.09-3.36,8.41c3.44,2.1,5.83-6.9,5.83-6.9s0.4-1.38,1.55-2.3s1.11-1.83,1.11-1.83s0.73,0.01,0.63-0.79L-626.27,370.13z"
				/>
		</g>
		<g>
			<path class="st2" d="M-592.41,370.61l5.27-3.11c0.28-0.16,0.64-0.07,0.8,0.21l0.17,0.29c0.16,0.28,0.07,0.64-0.21,0.8l-5.27,3.11
				c-0.28,0.16-0.64,0.07-0.8-0.21l-0.17-0.29C-592.78,371.14-592.69,370.77-592.41,370.61z"/>
			<path class="st2" d="M-587.49,369.46c0,0,0.91,0.05,0.51,0.87c0,0,0.9,0.92,0.93,2.08c0.03,1.29,1.13,2.4,1.13,2.4
				s7.07,6.2,3.24,8.46c-3.47,2.05-5.73-6.99-5.73-6.99s-0.38-1.38-1.52-2.32s-1.09-1.84-1.09-1.84s-0.73-0.01-0.62-0.8
				L-587.49,369.46z"/>
		</g>
	</g>
</g>
<rect y="-4.52" class="st6" width="1104.09" height="695.51"/>
<text transform="matrix(1 0 0 1 26.6118 36.7448)" class="st2 st7 st8">On a dark background</text>
<g>
	<g>
		<g>
			<polygon class="st1" points="509.29,214.06 509.29,201.68 543.53,188.57 577.04,200.95 577.04,214.06 543.53,203.86 			"/>
			<path class="st2" d="M509.29,215.35c-0.27,0-0.55-0.09-0.77-0.26c-0.33-0.24-0.52-0.63-0.52-1.03v-12.38
				c0-0.53,0.33-1.01,0.83-1.2l34.24-13.11c0.29-0.11,0.61-0.11,0.91-0.01l33.51,12.38c0.51,0.19,0.84,0.67,0.84,1.21v13.11
				c0,0.41-0.19,0.79-0.52,1.04c-0.33,0.24-0.75,0.32-1.14,0.2l-33.14-10.08l-33.86,10.09
				C509.54,215.33,509.42,215.35,509.29,215.35z M510.58,202.57v9.77l32.58-9.7c0.24-0.07,0.5-0.07,0.74,0l31.84,9.69v-10.47
				l-32.21-11.9L510.58,202.57z"/>
		</g>
		<g>
			<polyline class="st3" points="543.53,203.86 509.29,214.06 509.29,201.68 543.53,188.57 			"/>
			<path class="st2" d="M509.29,215.14c-0.23,0-0.46-0.07-0.64-0.21c-0.27-0.2-0.43-0.52-0.43-0.86v-12.38c0-0.45,0.28-0.84,0.69-1
				l34.24-13.11c0.55-0.21,1.18,0.06,1.39,0.62c0.21,0.55-0.07,1.18-0.62,1.39l-33.55,12.85v10.2l32.85-9.79
				c0.57-0.17,1.17,0.15,1.34,0.72s-0.15,1.17-0.72,1.34l-34.24,10.2C509.5,215.12,509.4,215.14,509.29,215.14z"/>
		</g>
	</g>
	<g>
		<g>
			<path class="st3" d="M539.77,107.98c-2.76-1.15-6.56-1.73-11.3-1.73c-28.67,0-82.57,21.12-83.11,21.33
				c-11.1,3.68-21.43,5.53-30.78,5.53c-25.27,0-35.17-13.25-35.58-13.82l-1.03-1.42l29.83-10.03l-10.82-35.94l3.29,2.73
				c7.1,5.89,16.26,8.88,27.23,8.88c23.89,0,48.53-14.22,48.78-14.36c12.67-6.99,25.73-10.52,38.87-10.52
				c10.54,0,18.97,2.25,24.62,4.41v-8.56c0-1.9,1.54-3.44,3.44-3.44s3.44,1.54,3.44,3.44v128.38l-3.18-1.17l-3.7,1.42V107.98z"/>
			<path class="st2" d="M543.21,52.33c1.18,0,2.15,0.97,2.15,2.15V181l-1.89-0.7l-2.41,0.92v-74.08c-3.15-1.53-7.49-2.18-12.59-2.18
				c-29.25,0-83.58,21.42-83.58,21.42c-11.95,3.96-21.98,5.44-30.3,5.44c-24.9,0-34.53-13.28-34.53-13.28l29.35-9.87l-9.95-33.04
				c8.16,6.77,18.08,9.18,28.06,9.18c24.53,0,49.43-14.54,49.43-14.54c14.28-7.87,27.39-10.35,38.22-10.35
				c11.83,0,20.95,2.95,25.91,5.02V54.47C541.06,53.29,542.03,52.33,543.21,52.33 M543.21,49.75c-2.61,0-4.73,2.12-4.73,4.73v6.72
				c-5.69-1.98-13.63-3.86-23.33-3.86c-13.36,0-26.64,3.59-39.47,10.67l-0.03,0.01l-0.03,0.02c-0.24,0.14-24.6,14.19-48.13,14.19
				c-10.66,0-19.55-2.89-26.41-8.58l-6.58-5.46l2.47,8.19l9.23,30.65l-26.98,9.07l-3.33,1.12l2.06,2.84
				c0.42,0.59,10.7,14.35,36.62,14.35c9.48,0,19.95-1.88,31.11-5.58l0.07-0.02l0.07-0.03c0.54-0.21,54.22-21.24,82.64-21.24
				c4.13,0,7.49,0.44,10.01,1.32v72.36v3.75l3.5-1.34l1.5-0.57l0.98,0.36l3.47,1.28V181V54.47
				C547.94,51.87,545.82,49.75,543.21,49.75L543.21,49.75z"/>
		</g>
	</g>
	<g>
		<g>
			<polygon class="st1" points="478.7,259.17 478.7,235.13 543.53,211.09 606.18,232.94 606.18,259.17 544.26,234.01 			"/>
			<path class="st2" d="M606.17,260.46c-0.16,0-0.33-0.03-0.49-0.1l-61.45-24.96l-65.08,24.97c-0.4,0.15-0.84,0.1-1.19-0.14
				c-0.35-0.24-0.56-0.64-0.56-1.06v-24.04c0-0.54,0.34-1.02,0.84-1.21l64.83-24.04c0.28-0.1,0.59-0.11,0.87-0.01l62.65,21.85
				c0.52,0.18,0.87,0.67,0.87,1.22v26.22c0,0.43-0.21,0.83-0.57,1.07C606.68,260.38,606.43,260.46,606.17,260.46z M479.99,236.03
				v21.26l63.81-24.48c0.31-0.12,0.65-0.11,0.95,0.01l60.14,24.44v-23.39l-61.34-21.4L479.99,236.03z"/>
		</g>
		<g>
			<polyline class="st3" points="544.26,234.01 478.7,259.17 478.7,235.13 543.53,211.09 			"/>
			<path class="st2" d="M478.7,260.46c-0.26,0-0.51-0.08-0.73-0.23c-0.35-0.24-0.56-0.64-0.56-1.06v-24.04
				c0-0.54,0.34-1.02,0.84-1.21l64.83-24.04c0.67-0.25,1.41,0.09,1.66,0.76c0.25,0.67-0.09,1.41-0.76,1.66l-63.99,23.73v21.26
				l63.81-24.48c0.66-0.26,1.41,0.08,1.67,0.74c0.25,0.67-0.08,1.41-0.74,1.67l-65.56,25.16
				C479.01,260.43,478.85,260.46,478.7,260.46z"/>
		</g>
	</g>
	<g>
		<g>
			<path class="st1" d="M408.14,294.47l136.99-50.82l131.46,50.82l-18.78,30.93l-6.63,45.29c0,0,0,15.47-3.31,18.78
				s-101.64,64.07-205.48,0c0,0-3.31-6.63-4.42-19.89l-6.08-41.43L408.14,294.47z"/>
			<path class="st2" d="M543.73,420.37c-30,0-65.72-6.88-102.25-29.42c-0.27-0.17-0.49-0.41-0.63-0.69
				c-0.14-0.28-3.47-7.06-4.59-20.46l-6.01-40.97l-23.52-33.36c-0.31-0.44-0.4-0.99-0.24-1.5c0.16-0.51,0.54-0.92,1.04-1.1
				l136.99-50.82c0.39-0.15,0.83-0.14,1.22,0.01l131.46,50.82c0.47,0.18,0.84,0.57,1.01,1.05s0.11,1.01-0.16,1.45L659.46,326
				l-6.56,44.83c-0.01,2.98-0.24,16.29-3.82,19.87c-1.53,1.53-27.29,18.02-65.92,25.74C571.78,418.71,558.45,420.37,543.73,420.37z
				 M443.73,388.29c53.23,32.66,104.66,31.54,138.46,24.83c37.85-7.52,62.82-23.31,64.46-24.86c1.93-1.93,2.8-11.43,2.81-17.56
				c0-0.08,0.01-0.17,0.02-0.25l6.63-45.29c0.03-0.23,0.11-0.45,0.23-0.64l17.71-29.18l-128.94-49.84l-134.28,49.81l22.46,31.87
				c0.16,0.22,0.26,0.47,0.3,0.74l6.08,41.43c0.01,0.04,0.01,0.07,0.01,0.11C440.59,380.33,443.03,386.66,443.73,388.29z"/>
		</g>
		<g>
			<path class="st3" d="M545.73,418.69c-31.2,0.37-66.93-6.75-103.34-29.21c0,0-3.31-6.63-4.42-19.89l-6.08-41.43l-23.75-33.69
				l136.99-50.82"/>
			<path class="st2" d="M543.42,420.43c-35.93,0-70.22-9.91-101.93-29.48c-0.27-0.17-0.49-0.41-0.63-0.69
				c-0.14-0.28-3.47-7.06-4.59-20.46l-6.01-40.97l-23.52-33.36c-0.31-0.44-0.4-0.99-0.24-1.5s0.54-0.92,1.04-1.1l136.99-50.82
				l1.2,3.22l-134.89,50.04l22.46,31.87c0.16,0.22,0.26,0.47,0.3,0.74l6.08,41.43c0.01,0.04,0.01,0.07,0.01,0.11
				c0.91,10.88,3.35,17.21,4.05,18.84c31.72,19.46,66.07,29.1,101.97,28.68l0.04,3.44C544.97,420.42,544.19,420.43,543.42,420.43z"
				/>
		</g>
	</g>
	<g>
		<line class="st4" x1="513.19" y1="342.09" x2="546.25" y2="335.59"/>
		<line class="st4" x1="529.05" y1="364.58" x2="546.25" y2="334.78"/>
		<line class="st4" x1="564" y1="365.12" x2="546.39" y2="334.78"/>
		<line class="st4" x1="580.8" y1="341.28" x2="546.12" y2="334.78"/>
		<line class="st4" x1="573.08" y1="312.01" x2="545.85" y2="334.78"/>
		<line class="st4" x1="518.21" y1="312.83" x2="545.85" y2="334.78"/>
		<circle class="st5" cx="546.14" cy="334.8" r="34.3"/>
		<line class="st4" x1="545.85" y1="298.6" x2="545.85" y2="334.78"/>
		<g>
			<path class="st2" d="M545.88,307.08c15.28,0,27.67,12.39,27.67,27.67c0,15.28-12.39,27.67-27.67,27.67s-27.67-12.39-27.67-27.67
				C518.21,319.47,530.6,307.08,545.88,307.08 M545.88,304.93c-16.44,0-29.82,13.38-29.82,29.82c0,16.44,13.38,29.82,29.82,29.82
				s29.82-13.38,29.82-29.82C575.7,318.31,562.32,304.93,545.88,304.93L545.88,304.93z"/>
		</g>
		<g>
			<circle class="st2" cx="546.29" cy="335.03" r="3.81"/>
		</g>
		<g>
			<path class="st2" d="M548.94,300.14h-6.12c-0.32,0-0.59-0.26-0.59-0.59v-0.34c0-0.32,0.26-0.59,0.59-0.59h6.12
				c0.32,0,0.59,0.26,0.59,0.59v0.34C549.53,299.88,549.26,300.14,548.94,300.14z"/>
			<path class="st2" d="M544.12,298.63c0,0-0.75-0.5,0-1.01c0,0-0.31-1.25,0.25-2.26c0.63-1.13,0.25-2.64,0.25-2.64
				s-2.94-8.93,1.51-8.93c4.03,0,1.38,8.93,1.38,8.93s-0.38,1.38,0.13,2.77c0.5,1.38,0,2.14,0,2.14s0.63,0.38,0.13,1.01H544.12z"/>
		</g>
		<g>
			<path class="st2" d="M520.74,310.85l-3.79,4.81c-0.2,0.25-0.57,0.3-0.82,0.1l-0.27-0.21c-0.25-0.2-0.3-0.57-0.1-0.82l3.79-4.81
				c0.2-0.25,0.57-0.3,0.82-0.1l0.27,0.21C520.89,310.22,520.94,310.6,520.74,310.85z"/>
			<path class="st2" d="M516.57,313.7c0,0-0.86,0.28-0.79-0.62c0,0-1.18-0.53-1.62-1.6c-0.5-1.19-1.92-1.83-1.92-1.83
				s-8.83-3.22-6.08-6.71c2.49-3.16,7.87,4.44,7.87,4.44s0.85,1.15,2.25,1.61c1.4,0.46,1.68,1.32,1.68,1.32s0.69-0.26,0.87,0.52
				L516.57,313.7z"/>
		</g>
		<g>
			<path class="st2" d="M511.71,339.65l1.3,5.99c0.07,0.32-0.13,0.63-0.45,0.7l-0.33,0.07c-0.32,0.07-0.63-0.13-0.7-0.45l-1.3-5.99
				c-0.07-0.32,0.13-0.63,0.45-0.7l0.33-0.07C511.33,339.13,511.64,339.33,511.71,339.65z"/>
			<path class="st2" d="M511.25,344.68c0,0-0.33,0.84-0.98,0.21c0,0-1.16,0.57-2.27,0.23c-1.24-0.38-2.64,0.31-2.64,0.31
				s-8.11,4.76-9.05,0.41c-0.85-3.93,8.44-3.24,8.44-3.24s1.43,0.08,2.68-0.71s2.09-0.45,2.09-0.45s0.24-0.69,0.96-0.34
				L511.25,344.68z"/>
		</g>
		<g>
			<path class="st2" d="M580.65,338.15l-1.09,6.03c-0.06,0.32,0.16,0.62,0.47,0.68l0.33,0.06c0.32,0.06,0.62-0.16,0.68-0.47
				l1.09-6.03c0.06-0.32-0.16-0.62-0.47-0.68l-0.33-0.06C581.01,337.62,580.71,337.83,580.65,338.15z"/>
			<path class="st2" d="M581.28,343.17c0,0,0.36,0.83,0.99,0.18c0,0,1.18,0.53,2.27,0.15c1.23-0.42,2.64,0.22,2.64,0.22
				s8.27,4.48,9.06,0.1c0.71-3.96-8.54-2.95-8.54-2.95s-1.43,0.13-2.7-0.62c-1.27-0.74-2.1-0.38-2.1-0.38s-0.26-0.69-0.97-0.3
				L581.28,343.17z"/>
		</g>
		<g>
			<path class="st2" d="M570.62,310.15l3.86,4.76c0.2,0.25,0.57,0.29,0.82,0.09l0.26-0.21c0.25-0.2,0.29-0.57,0.09-0.82l-3.86-4.76
				c-0.2-0.25-0.57-0.29-0.82-0.09l-0.26,0.21C570.45,309.53,570.41,309.9,570.62,310.15z"/>
			<path class="st2" d="M574.83,312.94c0,0,0.87,0.27,0.78-0.63c0,0,1.17-0.55,1.6-1.62c0.48-1.2,1.89-1.86,1.89-1.86
				s8.79-3.35,5.98-6.8c-2.54-3.13-7.81,4.55-7.81,4.55s-0.84,1.16-2.23,1.65c-1.39,0.48-1.66,1.35-1.66,1.35s-0.69-0.25-0.86,0.54
				L574.83,312.94z"/>
		</g>
		<g>
			<path class="st2" d="M532.04,366.84l-5.23-3.19c-0.28-0.17-0.64-0.08-0.81,0.2l-0.18,0.29c-0.17,0.28-0.08,0.64,0.2,0.81
				l5.23,3.19c0.28,0.17,0.64,0.08,0.81-0.2l0.18-0.29C532.4,367.37,532.31,367.01,532.04,366.84z"/>
			<path class="st2" d="M527.13,365.62c0,0-0.91,0.04-0.52,0.86c0,0-0.92,0.91-0.96,2.06c-0.05,1.29-1.16,2.39-1.16,2.39
				s-7.16,6.09-3.36,8.41c3.44,2.1,5.83-6.9,5.83-6.9s0.4-1.38,1.55-2.3s1.11-1.83,1.11-1.83s0.73,0.01,0.63-0.79L527.13,365.62z"/>
		</g>
		<g>
			<path class="st2" d="M560.99,366.09l5.27-3.11c0.28-0.16,0.64-0.07,0.8,0.21l0.17,0.29c0.16,0.28,0.07,0.64-0.21,0.8l-5.27,3.11
				c-0.28,0.16-0.64,0.07-0.8-0.21l-0.17-0.29C560.62,366.62,560.71,366.26,560.99,366.09z"/>
			<path class="st2" d="M565.91,364.94c0,0,0.91,0.05,0.51,0.87c0,0,0.9,0.92,0.93,2.08c0.03,1.29,1.13,2.4,1.13,2.4
				s7.07,6.2,3.24,8.46c-3.47,2.05-5.73-6.99-5.73-6.99s-0.38-1.38-1.52-2.32s-1.09-1.84-1.09-1.84s-0.73-0.01-0.62-0.8
				L565.91,364.94z"/>
		</g>
	</g>
</g>
<text transform="matrix(1 0 0 1 -1132.3699 583.1135)" class="st7 st8">On a white background</text>
<g>
	<g>
		<g>
			<polygon class="st1" points="-624.06,763.9 -624.06,751.52 -589.83,738.41 -556.32,750.79 -556.32,763.9 -589.83,753.7 			"/>
		</g>
		<g>
			<polyline class="st3" points="-589.83,753.7 -624.06,763.9 -624.06,751.52 -589.83,738.41 			"/>
		</g>
	</g>
	<g>
		<g>
			<path class="st3" d="M-593.29,657.63c-2.81-1.21-6.71-1.82-11.59-1.82c-28.72,0-82.68,21.14-83.22,21.35
				c-11.05,3.67-21.35,5.51-30.67,5.51c-25.12,0-34.94-13.14-35.34-13.7l-0.8-1.1l29.72-10l-10.63-35.29l2.55,2.12
				c7.15,5.94,16.38,8.95,27.42,8.94c23.97,0,48.67-14.26,48.92-14.4c12.62-6.96,25.64-10.48,38.72-10.48
				c10.74,0,19.28,2.35,24.91,4.54v-8.99c0-1.74,1.41-3.15,3.15-3.15s3.15,1.41,3.15,3.15v127.97l-2.89-1.07l-3.41,1.31V657.63z"/>
			<path class="st3" d="M-590.14,602.17c1.18,0,2.15,0.97,2.15,2.15v126.53l-1.89-0.7l-2.41,0.92v-74.08
				c-3.15-1.53-7.49-2.18-12.59-2.18c-29.25,0-83.58,21.42-83.58,21.42c-11.95,3.96-21.98,5.44-30.3,5.44
				c-24.9,0-34.53-13.28-34.53-13.28l29.35-9.87l-9.95-33.04c8.16,6.77,18.08,9.18,28.06,9.18c24.53,0,49.43-14.54,49.43-14.54
				c14.28-7.87,27.39-10.35,38.22-10.35c11.83,0,20.95,2.95,25.91,5.02v-10.47C-592.29,603.13-591.32,602.17-590.14,602.17
				 M-590.14,600.17c-2.29,0-4.15,1.86-4.15,4.15v7.54c-5.68-2.06-13.85-4.1-23.91-4.1c-13.26,0-26.44,3.56-39.19,10.59
				c-0.29,0.17-24.77,14.29-48.46,14.29c-10.8,0-19.81-2.93-26.78-8.71l-5.1-4.23l1.91,6.35l9.39,31.19l-27.51,9.25l-2.58,0.87
				l1.6,2.2c0.42,0.58,10.52,14.11,36.15,14.11c9.42,0,19.83-1.87,30.93-5.55l0.05-0.02l0.05-0.02
				c0.54-0.21,54.32-21.28,82.85-21.28c4.4,0,7.96,0.5,10.59,1.5v72.77v2.91l2.72-1.04l1.7-0.65l1.19,0.44l2.69,1v-2.87V604.31
				C-585.99,602.03-587.85,600.17-590.14,600.17L-590.14,600.17z"/>
		</g>
	</g>
	<g>
		<g>
			<polygon class="st1" points="-654.66,809.01 -654.66,784.97 -589.83,760.93 -527.18,782.78 -527.18,809.01 -589.1,783.85 			"/>
		</g>
		<g>
			<polyline class="st3" points="-589.1,783.85 -654.66,809.01 -654.66,784.97 -589.83,760.93 			"/>
		</g>
	</g>
	<g>
		<g>
			<path class="st1" d="M-725.22,844.31l136.99-50.82l131.46,50.82l-18.78,30.93l-6.63,45.29c0,0,0,15.47-3.31,18.78
				s-101.64,64.07-205.48,0c0,0-3.31-6.63-4.42-19.89l-6.08-41.43L-725.22,844.31z"/>
		</g>
		<g>
			<path class="st3" d="M-587.63,968.53c-31.2,0.37-66.93-6.75-103.34-29.21c0,0-3.31-6.63-4.42-19.89l-6.08-41.43l-23.75-33.69
				l136.99-50.82"/>
		</g>
	</g>
	<g>
		<line class="st4" x1="-620.16" y1="891.93" x2="-587.1" y2="885.43"/>
		<line class="st4" x1="-604.31" y1="914.42" x2="-587.1" y2="884.62"/>
		<line class="st4" x1="-569.36" y1="914.96" x2="-586.97" y2="884.62"/>
		<line class="st4" x1="-552.56" y1="891.12" x2="-587.24" y2="884.62"/>
		<line class="st4" x1="-560.28" y1="861.85" x2="-587.51" y2="884.62"/>
		<line class="st4" x1="-615.15" y1="862.67" x2="-587.51" y2="884.62"/>
		<circle class="st5" cx="-587.22" cy="884.64" r="34.3"/>
		<line class="st4" x1="-587.51" y1="848.44" x2="-587.51" y2="884.62"/>
		<g>
			<path class="st2" d="M-587.48,856.92c15.28,0,27.67,12.39,27.67,27.67c0,15.28-12.39,27.67-27.67,27.67s-27.67-12.39-27.67-27.67
				C-615.15,869.31-602.76,856.92-587.48,856.92 M-587.48,854.77c-16.44,0-29.82,13.38-29.82,29.82c0,16.44,13.38,29.82,29.82,29.82
				s29.82-13.38,29.82-29.82C-557.66,868.15-571.03,854.77-587.48,854.77L-587.48,854.77z"/>
		</g>
		<g>
			<circle class="st2" cx="-587.07" cy="884.87" r="3.81"/>
		</g>
		<g>
			<path class="st2" d="M-584.42,849.98h-6.12c-0.32,0-0.59-0.26-0.59-0.59v-0.34c0-0.32,0.26-0.59,0.59-0.59h6.12
				c0.32,0,0.59,0.26,0.59,0.59v0.34C-583.83,849.72-584.09,849.98-584.42,849.98z"/>
			<path class="st2" d="M-589.24,848.47c0,0-0.75-0.5,0-1.01c0,0-0.31-1.25,0.25-2.26c0.63-1.13,0.25-2.64,0.25-2.64
				s-2.94-8.93,1.51-8.93c4.03,0,1.38,8.93,1.38,8.93s-0.38,1.38,0.13,2.77c0.5,1.38,0,2.14,0,2.14s0.63,0.38,0.13,1.01H-589.24z"/>
		</g>
		<g>
			<path class="st2" d="M-612.62,860.69l-3.79,4.81c-0.2,0.25-0.57,0.3-0.82,0.1l-0.27-0.21c-0.25-0.2-0.3-0.57-0.1-0.82l3.79-4.81
				c0.2-0.25,0.57-0.3,0.82-0.1l0.27,0.21C-612.47,860.06-612.42,860.44-612.62,860.69z"/>
			<path class="st2" d="M-616.79,863.54c0,0-0.86,0.28-0.79-0.62c0,0-1.18-0.53-1.62-1.6c-0.5-1.19-1.92-1.83-1.92-1.83
				s-8.83-3.22-6.08-6.71c2.49-3.16,7.87,4.44,7.87,4.44s0.85,1.15,2.25,1.61c1.4,0.46,1.68,1.32,1.68,1.32s0.69-0.26,0.87,0.52
				L-616.79,863.54z"/>
		</g>
		<g>
			<path class="st2" d="M-621.65,889.49l1.3,5.99c0.07,0.32-0.13,0.63-0.45,0.7l-0.33,0.07c-0.32,0.07-0.63-0.13-0.7-0.45l-1.3-5.99
				c-0.07-0.32,0.13-0.63,0.45-0.7l0.33-0.07C-622.03,888.97-621.72,889.17-621.65,889.49z"/>
			<path class="st2" d="M-622.1,894.52c0,0-0.33,0.84-0.98,0.21c0,0-1.16,0.57-2.27,0.23c-1.24-0.38-2.64,0.31-2.64,0.31
				s-8.11,4.76-9.05,0.41c-0.85-3.93,8.44-3.24,8.44-3.24s1.43,0.08,2.68-0.71c1.25-0.78,2.09-0.45,2.09-0.45s0.24-0.69,0.96-0.34
				L-622.1,894.52z"/>
		</g>
		<g>
			<path class="st2" d="M-552.71,887.99l-1.09,6.03c-0.06,0.32,0.16,0.62,0.47,0.68l0.33,0.06c0.32,0.06,0.62-0.16,0.68-0.47
				l1.09-6.03c0.06-0.32-0.16-0.62-0.47-0.68l-0.33-0.06C-552.34,887.46-552.65,887.67-552.71,887.99z"/>
			<path class="st2" d="M-552.08,893.01c0,0,0.36,0.83,0.99,0.18c0,0,1.18,0.53,2.27,0.15c1.23-0.42,2.64,0.22,2.64,0.22
				s8.27,4.48,9.06,0.1c0.71-3.96-8.54-2.95-8.54-2.95s-1.43,0.13-2.7-0.62c-1.27-0.74-2.1-0.38-2.1-0.38s-0.26-0.69-0.97-0.3
				L-552.08,893.01z"/>
		</g>
		<g>
			<path class="st2" d="M-562.74,859.99l3.86,4.76c0.2,0.25,0.57,0.29,0.82,0.09l0.26-0.21c0.25-0.2,0.29-0.57,0.09-0.82l-3.86-4.76
				c-0.2-0.25-0.57-0.29-0.82-0.09l-0.26,0.21C-562.9,859.37-562.94,859.74-562.74,859.99z"/>
			<path class="st2" d="M-558.53,862.78c0,0,0.87,0.27,0.78-0.63c0,0,1.17-0.55,1.6-1.62c0.48-1.2,1.89-1.86,1.89-1.86
				s8.79-3.35,5.98-6.8c-2.54-3.13-7.81,4.55-7.81,4.55s-0.84,1.16-2.23,1.65c-1.39,0.48-1.66,1.35-1.66,1.35s-0.69-0.25-0.86,0.54
				L-558.53,862.78z"/>
		</g>
		<g>
			<path class="st2" d="M-601.32,916.68l-5.23-3.19c-0.28-0.17-0.64-0.08-0.81,0.2l-0.18,0.29c-0.17,0.28-0.08,0.64,0.2,0.81
				l5.23,3.19c0.28,0.17,0.64,0.08,0.81-0.2l0.18-0.29C-600.96,917.21-601.05,916.85-601.32,916.68z"/>
			<path class="st2" d="M-606.22,915.46c0,0-0.91,0.04-0.52,0.86c0,0-0.92,0.91-0.96,2.06c-0.05,1.29-1.16,2.39-1.16,2.39
				s-7.16,6.09-3.36,8.41c3.44,2.1,5.83-6.9,5.83-6.9s0.4-1.38,1.55-2.3c1.15-0.92,1.11-1.83,1.11-1.83s0.73,0.01,0.63-0.79
				L-606.22,915.46z"/>
		</g>
		<g>
			<path class="st2" d="M-572.37,915.93l5.27-3.11c0.28-0.16,0.64-0.07,0.8,0.21l0.17,0.29c0.16,0.28,0.07,0.64-0.21,0.8l-5.27,3.11
				c-0.28,0.16-0.64,0.07-0.8-0.21l-0.17-0.29C-572.74,916.46-572.64,916.1-572.37,915.93z"/>
			<path class="st2" d="M-567.45,914.78c0,0,0.91,0.05,0.51,0.87c0,0,0.9,0.92,0.93,2.08c0.03,1.29,1.13,2.4,1.13,2.4
				s7.07,6.2,3.24,8.46c-3.47,2.05-5.73-6.99-5.73-6.99s-0.38-1.38-1.52-2.32c-1.14-0.94-1.09-1.84-1.09-1.84s-0.73-0.01-0.62-0.8
				L-567.45,914.78z"/>
		</g>
	</g>
</g>
<g>
	<path class="st2" d="M332.77,596.3l-8.73-22.05h-43.47l-8.25,22.05h-29.51l47.11-112.31h26.33l46.64,112.31H332.77z M302.63,513.97
		l-14.28,38.55h28.24L302.63,513.97z"/>
	<path class="st2" d="M427.57,596.3v-10.31h-0.32c-2.54,4.02-6.16,7.11-10.87,9.28c-4.71,2.17-9.7,3.25-14.99,3.25
		c-5.92,0-11.21-1.17-15.86-3.49c-4.65-2.32-8.59-5.42-11.82-9.28c-3.23-3.86-5.69-8.33-7.38-13.4c-1.69-5.08-2.54-10.36-2.54-15.86
		c0-5.5,0.87-10.76,2.62-15.78c1.75-5.02,4.23-9.44,7.46-13.25c3.23-3.81,7.14-6.82,11.74-9.04c4.6-2.22,9.76-3.33,15.47-3.33
		c5.81,0,10.73,1.11,14.75,3.33c4.02,2.22,7.14,4.66,9.36,7.3h0.32v-49.34h26.02V596.3H427.57z M426.62,556.64
		c0-2.54-0.45-5.02-1.35-7.46c-0.9-2.43-2.17-4.6-3.81-6.5c-1.64-1.9-3.62-3.44-5.95-4.6c-2.33-1.16-4.97-1.75-7.93-1.75
		c-3.07,0-5.77,0.58-8.09,1.75c-2.33,1.16-4.28,2.67-5.87,4.52c-1.59,1.85-2.78,3.99-3.57,6.42c-0.79,2.43-1.19,4.92-1.19,7.46
		c0,2.54,0.4,5.05,1.19,7.54c0.79,2.49,1.98,4.68,3.57,6.58c1.59,1.9,3.54,3.44,5.87,4.6c2.32,1.17,5.02,1.75,8.09,1.75
		c2.96,0,5.6-0.58,7.93-1.75c2.33-1.16,4.31-2.7,5.95-4.6c1.64-1.9,2.91-4.07,3.81-6.5C426.17,561.67,426.62,559.18,426.62,556.64z"
		/>
	<path class="st2" d="M570.37,596.3v-43.15c0-2.22-0.16-4.36-0.48-6.42c-0.32-2.06-0.9-3.83-1.74-5.31
		c-0.85-1.48-1.98-2.67-3.41-3.57c-1.43-0.9-3.31-1.35-5.63-1.35c-2.22,0-4.15,0.48-5.79,1.43c-1.64,0.95-3.01,2.22-4.13,3.81
		c-1.11,1.59-1.93,3.41-2.46,5.47c-0.53,2.06-0.79,4.2-0.79,6.42v42.67h-26.02v-45.05c0-4.55-0.9-8.14-2.7-10.79
		c-1.8-2.64-4.65-3.97-8.57-3.97c-4.12,0-7.32,1.64-9.6,4.92c-2.28,3.28-3.41,7.3-3.41,12.06v42.83h-26.17v-79h25.22v10.95h0.32
		c0.95-1.69,2.14-3.33,3.57-4.92c1.43-1.59,3.14-2.99,5.16-4.2c2.01-1.21,4.26-2.19,6.74-2.93c2.48-0.74,5.21-1.11,8.17-1.11
		c5.71,0,10.55,1.17,14.51,3.49c3.97,2.33,7.06,5.66,9.28,9.99c2.64-4.12,6.03-7.4,10.15-9.84c4.12-2.43,9.15-3.65,15.07-3.65
		c5.39,0,9.91,0.98,13.56,2.94c3.65,1.96,6.58,4.5,8.8,7.61c2.22,3.12,3.83,6.61,4.84,10.47c1,3.86,1.51,7.64,1.51,11.34v48.86
		H570.37z"/>
	<path class="st2" d="M641.55,492.08c0,2.01-0.4,3.89-1.19,5.63c-0.79,1.74-1.85,3.25-3.17,4.52c-1.32,1.27-2.91,2.28-4.76,3.01
		c-1.85,0.74-3.78,1.11-5.79,1.11c-4.23,0-7.77-1.4-10.63-4.2c-2.85-2.8-4.28-6.16-4.28-10.07c0-1.9,0.37-3.73,1.11-5.47
		c0.74-1.75,1.8-3.25,3.17-4.52c1.37-1.27,2.96-2.3,4.76-3.09c1.8-0.79,3.75-1.19,5.87-1.19c2.01,0,3.94,0.37,5.79,1.11
		c1.85,0.74,3.44,1.75,4.76,3.01c1.32,1.27,2.38,2.78,3.17,4.52S641.55,490.07,641.55,492.08z M613.63,596.3v-79h26.02v79H613.63z"
		/>
	<path class="st2" d="M708.92,538.72c-1.16-0.32-2.3-0.53-3.41-0.63c-1.11-0.1-2.2-0.16-3.25-0.16c-3.49,0-6.42,0.64-8.8,1.9
		c-2.38,1.27-4.28,2.8-5.71,4.59c-1.43,1.79-2.46,3.75-3.09,5.85c-0.63,2.11-0.95,3.95-0.95,5.54v40.5h-26.02V517.4h25.06v11.42
		h0.32c2.01-4.05,4.86-7.35,8.57-9.9c3.7-2.56,7.98-3.84,12.85-3.84c1.06,0,2.09,0.06,3.09,0.16c1,0.11,1.82,0.26,2.46,0.48
		L708.92,538.72z"/>
	<path class="st2" d="M718.14,528.09c4.65-4.44,10.07-7.77,16.26-9.99c6.19-2.22,12.51-3.33,18.96-3.33
		c6.66,0,12.29,0.82,16.89,2.46c4.6,1.64,8.33,4.18,11.18,7.61c2.86,3.44,4.94,7.77,6.27,13.01c1.32,5.23,1.98,11.45,1.98,18.64
		v39.82h-23.8v-8.41h-0.48c-2.01,3.28-5.05,5.82-9.12,7.61c-4.07,1.8-8.49,2.7-13.25,2.7c-3.17,0-6.45-0.42-9.84-1.27
		c-3.39-0.85-6.48-2.22-9.28-4.12c-2.8-1.9-5.1-4.44-6.9-7.61c-1.8-3.17-2.7-7.08-2.7-11.74c0-5.71,1.56-10.31,4.68-13.8
		c3.12-3.49,7.14-6.19,12.06-8.09c4.92-1.9,10.39-3.17,16.42-3.81c6.03-0.64,11.9-0.95,17.61-0.95v-1.27c0-3.91-1.38-6.79-4.12-8.65
		c-2.75-1.85-6.13-2.78-10.15-2.78c-3.7,0-7.27,0.79-10.71,2.38c-3.44,1.59-6.37,3.49-8.8,5.71L718.14,528.09z M765.89,561.88h-3.33
		c-2.85,0-5.74,0.13-8.65,0.4c-2.91,0.27-5.5,0.77-7.77,1.51c-2.28,0.74-4.15,1.82-5.63,3.25c-1.48,1.43-2.22,3.31-2.22,5.63
		c0,1.48,0.34,2.75,1.03,3.81c0.69,1.06,1.56,1.9,2.62,2.54c1.06,0.63,2.27,1.09,3.65,1.35c1.37,0.27,2.7,0.4,3.97,0.4
		c5.29,0,9.33-1.45,12.14-4.36c2.8-2.91,4.2-6.85,4.2-11.82V561.88z"/>
	<path class="st2" d="M807.07,596.3V476.37h26.49V596.3H807.07z"/>
</g>
<g>
	<g>
		<g>
			<polygon class="st1" points="506.17,985.51 506.17,973.13 540.4,960.02 573.91,972.4 573.91,985.51 540.4,975.31 			"/>
		</g>
		<g>
			<polyline class="st3" points="540.4,975.31 506.17,985.51 506.17,973.13 540.4,960.02 			"/>
		</g>
	</g>
	<g>
		<g>
			<path class="st3" d="M536.94,879.24c-2.81-1.21-6.71-1.82-11.59-1.82c-28.72,0-82.67,21.14-83.22,21.35
				c-11.05,3.67-21.35,5.51-30.67,5.51c-25.12,0-34.94-13.14-35.34-13.7l-0.8-1.1l29.72-9.99l-10.63-35.29l2.55,2.12
				c7.16,5.94,16.38,8.95,27.42,8.95c23.98,0,48.68-14.26,48.92-14.4c12.62-6.96,25.64-10.48,38.72-10.48
				c10.74,0,19.28,2.35,24.91,4.54v-8.99c0-1.74,1.41-3.15,3.15-3.15s3.15,1.41,3.15,3.15v127.97l-2.89-1.07l-3.41,1.31V879.24z"/>
			<path class="st3" d="M540.09,823.78c1.18,0,2.15,0.97,2.15,2.15v126.53l-1.89-0.7l-2.41,0.92v-74.08
				c-3.15-1.53-7.49-2.18-12.59-2.18c-29.25,0-83.58,21.42-83.58,21.42c-11.95,3.96-21.98,5.44-30.3,5.44
				c-24.9,0-34.53-13.28-34.53-13.28l29.35-9.87l-9.95-33.04c8.16,6.77,18.08,9.18,28.06,9.18c24.53,0,49.43-14.54,49.43-14.54
				c14.28-7.87,27.39-10.35,38.22-10.35c11.83,0,20.95,2.95,25.91,5.02v-10.47C537.94,824.74,538.9,823.78,540.09,823.78
				 M540.09,821.78c-2.29,0-4.15,1.86-4.15,4.15v7.54c-5.68-2.06-13.85-4.1-23.91-4.1c-13.26,0-26.44,3.56-39.19,10.59
				c-0.29,0.17-24.77,14.29-48.46,14.29c-10.8,0-19.81-2.93-26.78-8.71l-5.1-4.23l1.91,6.35l9.39,31.19l-27.51,9.25l-2.58,0.87
				l1.6,2.2c0.42,0.58,10.52,14.11,36.15,14.11c9.42,0,19.83-1.87,30.93-5.55l0.05-0.02l0.05-0.02
				c0.54-0.21,54.32-21.28,82.85-21.28c4.4,0,7.96,0.5,10.59,1.5v72.77v2.91l2.72-1.04l1.7-0.65l1.19,0.44l2.69,1v-2.87V825.92
				C544.24,823.64,542.37,821.78,540.09,821.78L540.09,821.78z"/>
		</g>
	</g>
	<g>
		<g>
			<polygon class="st1" points="475.57,1030.62 475.57,1006.58 540.4,982.54 603.05,1004.39 603.05,1030.62 541.13,1005.46 			"/>
		</g>
		<g>
			<polyline class="st3" points="541.13,1005.46 475.57,1030.62 475.57,1006.58 540.4,982.54 			"/>
		</g>
	</g>
	<g>
		<g>
			<path class="st1" d="M405.01,1065.92L542,1015.1l131.46,50.82l-18.78,30.93l-6.63,45.29c0,0,0,15.47-3.31,18.78
				s-101.64,64.07-205.48,0c0,0-3.31-6.63-4.42-19.89l-6.08-41.43L405.01,1065.92z"/>
		</g>
		<g>
			<path class="st3" d="M542.6,1190.14c-31.2,0.37-66.93-6.75-103.34-29.21c0,0-3.31-6.63-4.42-19.89l-6.08-41.43l-23.75-33.69
				L542,1015.1"/>
		</g>
	</g>
	<g>
		<line class="st4" x1="510.07" y1="1113.54" x2="543.13" y2="1107.04"/>
		<line class="st4" x1="525.92" y1="1136.03" x2="543.13" y2="1106.23"/>
		<line class="st4" x1="560.87" y1="1136.57" x2="543.26" y2="1106.23"/>
		<line class="st4" x1="577.67" y1="1112.73" x2="542.99" y2="1106.23"/>
		<line class="st4" x1="569.95" y1="1083.46" x2="542.72" y2="1106.23"/>
		<line class="st4" x1="515.08" y1="1084.28" x2="542.72" y2="1106.23"/>
		<circle class="st5" cx="543.01" cy="1106.25" r="34.3"/>
		<line class="st4" x1="542.72" y1="1070.05" x2="542.72" y2="1106.23"/>
		<g>
			<path class="st2" d="M542.75,1078.53c15.28,0,27.67,12.39,27.67,27.67c0,15.28-12.39,27.67-27.67,27.67s-27.67-12.39-27.67-27.67
				C515.08,1090.92,527.47,1078.53,542.75,1078.53 M542.75,1076.38c-16.44,0-29.82,13.38-29.82,29.82s13.38,29.82,29.82,29.82
				s29.82-13.38,29.82-29.82S559.2,1076.38,542.75,1076.38L542.75,1076.38z"/>
		</g>
		<g>
			<circle class="st2" cx="543.16" cy="1106.48" r="3.81"/>
		</g>
		<g>
			<path class="st2" d="M545.81,1071.59h-6.12c-0.32,0-0.59-0.26-0.59-0.59v-0.34c0-0.32,0.26-0.59,0.59-0.59h6.12
				c0.32,0,0.59,0.26,0.59,0.59v0.34C546.4,1071.33,546.14,1071.59,545.81,1071.59z"/>
			<path class="st2" d="M540.99,1070.08c0,0-0.75-0.5,0-1.01c0,0-0.31-1.25,0.25-2.26c0.63-1.13,0.25-2.64,0.25-2.64
				s-2.94-8.93,1.51-8.93c4.03,0,1.38,8.93,1.38,8.93s-0.38,1.38,0.13,2.77s0,2.14,0,2.14s0.63,0.38,0.13,1.01H540.99z"/>
		</g>
		<g>
			<path class="st2" d="M517.61,1082.3l-3.79,4.81c-0.2,0.25-0.57,0.3-0.82,0.1l-0.27-0.21c-0.25-0.2-0.3-0.57-0.1-0.82l3.79-4.81
				c0.2-0.25,0.57-0.3,0.82-0.1l0.27,0.21C517.76,1081.67,517.81,1082.05,517.61,1082.3z"/>
			<path class="st2" d="M513.44,1085.15c0,0-0.86,0.28-0.79-0.62c0,0-1.18-0.53-1.62-1.6c-0.5-1.19-1.92-1.83-1.92-1.83
				s-8.83-3.22-6.08-6.71c2.49-3.16,7.87,4.44,7.87,4.44s0.85,1.15,2.25,1.61c1.4,0.46,1.68,1.32,1.68,1.32s0.69-0.26,0.87,0.52
				L513.44,1085.15z"/>
		</g>
		<g>
			<path class="st2" d="M508.58,1111.1l1.3,5.99c0.07,0.32-0.13,0.63-0.45,0.7l-0.33,0.07c-0.32,0.07-0.63-0.13-0.7-0.45l-1.3-5.99
				c-0.07-0.31,0.13-0.63,0.45-0.7l0.33-0.07C508.2,1110.58,508.51,1110.78,508.58,1111.1z"/>
			<path class="st2" d="M508.12,1116.13c0,0-0.33,0.84-0.98,0.21c0,0-1.16,0.57-2.27,0.23c-1.24-0.38-2.64,0.31-2.64,0.31
				s-8.11,4.76-9.05,0.41c-0.85-3.93,8.44-3.24,8.44-3.24s1.43,0.08,2.68-0.71s2.09-0.45,2.09-0.45s0.24-0.69,0.96-0.34
				L508.12,1116.13z"/>
		</g>
		<g>
			<path class="st2" d="M577.52,1109.6l-1.09,6.03c-0.06,0.32,0.16,0.62,0.47,0.68l0.33,0.06c0.32,0.06,0.62-0.16,0.68-0.47
				l1.09-6.03c0.06-0.32-0.16-0.62-0.47-0.68l-0.33-0.06C577.89,1109.07,577.58,1109.28,577.52,1109.6z"/>
			<path class="st2" d="M578.15,1114.62c0,0,0.36,0.83,0.99,0.18c0,0,1.18,0.53,2.27,0.15c1.23-0.42,2.64,0.22,2.64,0.22
				s8.27,4.48,9.06,0.1c0.71-3.96-8.54-2.95-8.54-2.95s-1.43,0.13-2.7-0.62c-1.27-0.74-2.1-0.38-2.1-0.38s-0.26-0.69-0.97-0.3
				L578.15,1114.62z"/>
		</g>
		<g>
			<path class="st2" d="M567.49,1081.6l3.86,4.76c0.2,0.25,0.57,0.29,0.82,0.09l0.26-0.21c0.25-0.2,0.29-0.57,0.09-0.82l-3.86-4.76
				c-0.2-0.25-0.57-0.29-0.82-0.09l-0.26,0.21C567.32,1080.98,567.29,1081.35,567.49,1081.6z"/>
			<path class="st2" d="M571.7,1084.39c0,0,0.87,0.27,0.78-0.63c0,0,1.17-0.55,1.6-1.62c0.48-1.2,1.89-1.86,1.89-1.86
				s8.79-3.35,5.98-6.8c-2.54-3.13-7.81,4.55-7.81,4.55s-0.84,1.16-2.23,1.65c-1.39,0.48-1.66,1.35-1.66,1.35s-0.69-0.25-0.86,0.54
				L571.7,1084.39z"/>
		</g>
		<g>
			<path class="st2" d="M528.91,1138.29l-5.23-3.19c-0.28-0.17-0.64-0.08-0.81,0.2l-0.18,0.29c-0.17,0.28-0.08,0.64,0.2,0.81
				l5.23,3.19c0.28,0.17,0.64,0.08,0.81-0.2l0.18-0.29C529.27,1138.82,529.18,1138.46,528.91,1138.29z"/>
			<path class="st2" d="M524,1137.07c0,0-0.91,0.04-0.52,0.86c0,0-0.92,0.91-0.96,2.06c-0.05,1.29-1.16,2.39-1.16,2.39
				s-7.16,6.09-3.36,8.41c3.44,2.1,5.83-6.9,5.83-6.9s0.4-1.38,1.55-2.3s1.11-1.83,1.11-1.83s0.73,0.01,0.63-0.79L524,1137.07z"/>
		</g>
		<g>
			<path class="st2" d="M557.86,1137.54l5.27-3.11c0.28-0.16,0.64-0.07,0.8,0.21l0.17,0.29c0.16,0.28,0.07,0.64-0.21,0.8l-5.27,3.11
				c-0.28,0.16-0.64,0.07-0.8-0.21l-0.17-0.29C557.49,1138.07,557.59,1137.71,557.86,1137.54z"/>
			<path class="st2" d="M562.78,1136.39c0,0,0.91,0.05,0.51,0.87c0,0,0.9,0.92,0.93,2.08c0.03,1.29,1.13,2.4,1.13,2.4
				s7.07,6.2,3.24,8.46c-3.47,2.05-5.73-6.99-5.73-6.99s-0.38-1.38-1.52-2.32s-1.09-1.84-1.09-1.84s-0.73-0.01-0.62-0.8
				L562.78,1136.39z"/>
		</g>
	</g>
</g>
<g>
	<path class="st3" d="M334.11,1366.48l-8.73-22.05h-43.47l-8.25,22.05h-29.51l47.11-112.31h26.33l46.64,112.31H334.11z
		 M303.97,1284.15l-14.28,38.55h28.24L303.97,1284.15z"/>
	<path class="st3" d="M428.91,1366.48v-10.31h-0.32c-2.54,4.02-6.16,7.11-10.87,9.28c-4.71,2.17-9.7,3.25-14.99,3.25
		c-5.92,0-11.21-1.17-15.86-3.49c-4.65-2.32-8.59-5.42-11.82-9.28c-3.23-3.86-5.69-8.33-7.38-13.4c-1.69-5.08-2.54-10.36-2.54-15.86
		c0-5.5,0.87-10.76,2.62-15.78c1.75-5.02,4.23-9.44,7.46-13.25c3.23-3.81,7.14-6.82,11.74-9.04c4.6-2.22,9.76-3.33,15.47-3.33
		c5.81,0,10.73,1.11,14.75,3.33c4.02,2.22,7.14,4.66,9.36,7.3h0.32v-49.34h26.02v119.93H428.91z M427.95,1326.82
		c0-2.54-0.45-5.02-1.35-7.46c-0.9-2.43-2.17-4.6-3.81-6.5c-1.64-1.9-3.62-3.44-5.95-4.6c-2.33-1.16-4.97-1.75-7.93-1.75
		c-3.07,0-5.77,0.58-8.09,1.75c-2.33,1.16-4.28,2.67-5.87,4.52c-1.59,1.85-2.78,3.99-3.57,6.42c-0.79,2.43-1.19,4.92-1.19,7.46
		c0,2.54,0.4,5.05,1.19,7.54c0.79,2.49,1.98,4.68,3.57,6.58c1.59,1.9,3.54,3.44,5.87,4.6c2.32,1.17,5.02,1.75,8.09,1.75
		c2.96,0,5.6-0.58,7.93-1.75c2.33-1.16,4.31-2.7,5.95-4.6c1.64-1.9,2.91-4.07,3.81-6.5C427.5,1331.84,427.95,1329.36,427.95,1326.82
		z"/>
	<path class="st3" d="M571.71,1366.48v-43.15c0-2.22-0.16-4.36-0.48-6.42c-0.32-2.06-0.9-3.83-1.75-5.31
		c-0.85-1.48-1.98-2.67-3.41-3.57c-1.43-0.9-3.31-1.35-5.63-1.35c-2.22,0-4.15,0.48-5.79,1.43c-1.64,0.95-3.01,2.22-4.13,3.81
		c-1.11,1.59-1.93,3.41-2.46,5.47c-0.53,2.06-0.79,4.2-0.79,6.42v42.67h-26.02v-45.05c0-4.55-0.9-8.14-2.7-10.79
		c-1.8-2.64-4.65-3.97-8.57-3.97c-4.12,0-7.32,1.64-9.6,4.92c-2.28,3.28-3.41,7.3-3.41,12.06v42.83h-26.17v-79h25.22v10.95h0.32
		c0.95-1.69,2.14-3.33,3.57-4.92c1.43-1.59,3.14-2.99,5.16-4.2c2.01-1.21,4.26-2.19,6.74-2.93c2.48-0.74,5.21-1.11,8.17-1.11
		c5.71,0,10.55,1.17,14.51,3.49c3.97,2.33,7.06,5.66,9.28,9.99c2.64-4.12,6.03-7.4,10.15-9.84c4.12-2.43,9.15-3.65,15.07-3.65
		c5.39,0,9.91,0.98,13.56,2.94c3.65,1.96,6.58,4.5,8.8,7.61c2.22,3.12,3.83,6.61,4.84,10.47c1,3.86,1.51,7.64,1.51,11.34v48.86
		H571.71z"/>
	<path class="st3" d="M642.89,1262.25c0,2.01-0.4,3.89-1.19,5.63c-0.79,1.74-1.85,3.25-3.17,4.52c-1.32,1.27-2.91,2.28-4.76,3.01
		c-1.85,0.74-3.78,1.11-5.79,1.11c-4.23,0-7.77-1.4-10.63-4.2c-2.85-2.8-4.28-6.16-4.28-10.07c0-1.9,0.37-3.73,1.11-5.47
		c0.74-1.75,1.8-3.25,3.17-4.52c1.37-1.27,2.96-2.3,4.76-3.09c1.8-0.79,3.75-1.19,5.87-1.19c2.01,0,3.94,0.37,5.79,1.11
		c1.85,0.74,3.44,1.75,4.76,3.01c1.32,1.27,2.38,2.78,3.17,4.52C642.49,1258.37,642.89,1260.25,642.89,1262.25z M614.97,1366.48v-79
		h26.02v79H614.97z"/>
	<path class="st3" d="M710.26,1308.89c-1.16-0.32-2.3-0.53-3.41-0.63c-1.11-0.1-2.2-0.16-3.25-0.16c-3.49,0-6.42,0.64-8.8,1.9
		c-2.38,1.27-4.28,2.8-5.71,4.59c-1.43,1.79-2.46,3.75-3.09,5.85c-0.63,2.11-0.95,3.95-0.95,5.54v40.5h-26.02v-78.91h25.06v11.42
		h0.32c2.01-4.05,4.86-7.35,8.57-9.9c3.7-2.56,7.98-3.84,12.85-3.84c1.06,0,2.09,0.06,3.09,0.16c1,0.11,1.82,0.26,2.46,0.48
		L710.26,1308.89z"/>
	<path class="st3" d="M719.47,1298.26c4.65-4.44,10.07-7.77,16.26-9.99c6.19-2.22,12.51-3.33,18.96-3.33
		c6.66,0,12.29,0.82,16.89,2.46c4.6,1.64,8.33,4.18,11.18,7.61c2.86,3.44,4.94,7.77,6.27,13.01c1.32,5.23,1.98,11.45,1.98,18.64
		v39.82h-23.8v-8.41h-0.48c-2.01,3.28-5.05,5.82-9.12,7.61c-4.07,1.8-8.49,2.7-13.25,2.7c-3.17,0-6.45-0.42-9.84-1.27
		c-3.39-0.85-6.48-2.22-9.28-4.12c-2.8-1.9-5.1-4.44-6.9-7.61c-1.8-3.17-2.7-7.08-2.7-11.74c0-5.71,1.56-10.31,4.68-13.8
		c3.12-3.49,7.14-6.19,12.06-8.09c4.92-1.9,10.39-3.17,16.42-3.81c6.03-0.64,11.9-0.95,17.61-0.95v-1.27c0-3.91-1.38-6.79-4.12-8.65
		c-2.75-1.85-6.13-2.78-10.15-2.78c-3.7,0-7.27,0.79-10.71,2.38c-3.44,1.59-6.37,3.49-8.8,5.71L719.47,1298.26z M767.22,1332.05
		h-3.33c-2.85,0-5.74,0.13-8.65,0.4c-2.91,0.27-5.5,0.77-7.77,1.51c-2.28,0.74-4.15,1.82-5.63,3.25c-1.48,1.43-2.22,3.31-2.22,5.63
		c0,1.48,0.34,2.75,1.03,3.81c0.69,1.06,1.56,1.9,2.62,2.54c1.06,0.63,2.27,1.09,3.65,1.35c1.37,0.27,2.7,0.4,3.97,0.4
		c5.29,0,9.33-1.45,12.14-4.36c2.8-2.91,4.2-6.85,4.2-11.82V1332.05z"/>
	<path class="st3" d="M808.4,1366.48v-119.93h26.49v119.93H808.4z"/>
</g>
</svg>
