<?xml version="1.0" encoding="utf-8"?>
<!-- Generator: Adobe Illustrator 23.1.1, SVG Export Plug-In . SVG Version: 6.00 Build 0)  -->
<svg version="1.1" id="Layer_1" xmlns="http://www.w3.org/2000/svg" xmlns:xlink="http://www.w3.org/1999/xlink" x="0px" y="0px"
	 viewBox="0 0 1104.09 690.99" style="enable-background:new 0 0 1104.09 690.99;" xml:space="preserve">
<style type="text/css">
	.st0{fill:#2E70AF;}
	.st1{fill:#FFFFFF;}
	.st2{fill:#333A65;}
	.st3{fill:none;stroke:#FFFFFF;stroke-width:2.15;stroke-linecap:round;stroke-linejoin:round;}
	.st4{fill:none;stroke:#FFFFFF;stroke-width:2.15;stroke-miterlimit:10;}
</style>
<title>admiral_logo_final</title>
<polygon class="st0" points="509.29,214.06 509.29,201.68 543.53,188.57 577.04,200.95 577.04,214.06 543.53,203.86 "/>
<path class="st1" d="M509.29,215.35c-0.71-0.01-1.28-0.58-1.29-1.29v-12.38c0-0.53,0.33-1.01,0.83-1.2l34.24-13.11
	c0.29-0.11,0.62-0.11,0.91,0l33.51,12.38c0.51,0.19,0.84,0.67,0.84,1.21v13.11c0,0.71-0.57,1.29-1.29,1.29
	c-0.13,0-0.25-0.02-0.37-0.05l-33.14-10.08l-33.86,10.09C509.54,215.34,509.42,215.35,509.29,215.35z M510.58,202.57v9.77l32.58-9.7
	c0.24-0.07,0.5-0.07,0.74,0l31.84,9.69v-10.47L543.53,190L510.58,202.57z"/>
<polyline class="st2" points="543.53,203.86 509.29,214.06 509.29,201.68 543.53,188.57 "/>
<path class="st1" d="M509.29,215.14c-0.23,0.01-0.46-0.07-0.64-0.21c-0.27-0.2-0.43-0.52-0.43-0.86v-12.38c0-0.44,0.27-0.84,0.69-1
	l34.24-13.11c0.53-0.28,1.18-0.08,1.46,0.44c0.28,0.53,0.08,1.18-0.44,1.46c-0.08,0.04-0.16,0.08-0.25,0.1l-33.55,12.85v10.2
	l32.85-9.79c0.58-0.12,1.16,0.26,1.28,0.84c0.1,0.51-0.17,1.02-0.66,1.22l-34.24,10.2C509.5,215.12,509.39,215.13,509.29,215.14z"/>
<path class="st2" d="M539.77,108c-2.76-1.15-6.56-1.73-11.3-1.73c-28.67,0-82.57,21.12-83.11,21.33
	c-11.1,3.68-21.43,5.53-30.78,5.53c-25.27,0-35.17-13.25-35.58-13.82l-1-1.42l29.83-10L397,71.9l3.29,2.73
	c7.1,5.89,16.26,8.88,27.23,8.88c23.89,0,48.53-14.22,48.78-14.36c12.67-7,25.73-10.52,38.87-10.52c8.4-0.05,16.73,1.43,24.6,4.37
	v-8.52c0-1.9,1.54-3.44,3.44-3.44s3.44,1.54,3.44,3.44v128.38l-3.18-1.17l-3.7,1.42V108z"/>
<path class="st1" d="M543.21,52.33c1.19,0.01,2.14,0.96,2.15,2.15V181l-1.89-0.7l-2.41,0.92v-74.08c-3.15-1.53-7.49-2.18-12.59-2.18
	c-29.25,0-83.58,21.42-83.58,21.42c-11.95,4-22,5.44-30.3,5.44c-24.9,0-34.53-13.28-34.53-13.28l29.35-9.87l-10-33
	c8.16,6.77,18.08,9.18,28.06,9.18c24.53,0,49.43-14.54,49.43-14.54c14.28-7.87,27.39-10.35,38.22-10.35
	c8.88-0.04,17.68,1.66,25.91,5V54.47c-0.01-1.17,0.93-2.13,2.1-2.14c0.01,0,0.02,0,0.03,0 M543.16,49.75
	c-2.61,0-4.73,2.12-4.73,4.73v6.72c-7.51-2.58-15.39-3.89-23.33-3.86c-13.36,0-26.64,3.59-39.47,10.67l0,0l0,0
	c-0.24,0.14-24.6,14.19-48.13,14.19c-10.66,0-19.55-2.89-26.41-8.58l-6.58-5.46l2.49,8.22l9.2,30.62l-27,9.07l-3.33,1.12l2.06,2.84
	c0.42,0.59,10.7,14.35,36.62,14.35c9.48,0,19.95-1.88,31.11-5.58h0.07h0.07c0.54-0.21,54.22-21.24,82.64-21.24
	c3.38-0.11,6.76,0.34,10,1.32V185l3.5-1.34l1.5-0.57l1,0.36l3.47,1.28V54.47c0.01-2.6-2.08-4.71-4.68-4.72c-0.01,0-0.02,0-0.03,0
	H543.16z"/>
<polygon class="st0" points="478.7,259.17 478.7,235.13 543.53,211.09 606.18,232.94 606.18,259.17 544.26,234.01 "/>
<path class="st1" d="M606.17,260.46c-0.17,0-0.34-0.03-0.49-0.1l-61.45-25l-65.08,25c-0.67,0.25-1.41-0.08-1.67-0.75
	c-0.06-0.15-0.08-0.3-0.08-0.45v-24c0-0.54,0.34-1.02,0.84-1.21l64.83-24c0.28-0.1,0.59-0.1,0.87,0l62.65,21.85
	c0.52,0.18,0.87,0.67,0.87,1.22v26.22c0,0.43-0.21,0.83-0.57,1.07C606.67,260.43,606.42,260.48,606.17,260.46z M480,236v21.26
	l63.81-24.48c0.32-0.13,0.68-0.13,1,0l60.14,24.44v-23.35l-61.34-21.4L480,236z"/>
<polyline class="st2" points="544.26,234.01 478.7,259.17 478.7,235.13 543.53,211.09 "/>
<path class="st1" d="M478.7,260.46c-0.71-0.01-1.28-0.58-1.29-1.29v-24c0-0.54,0.34-1.02,0.84-1.21l64.83-24
	c0.67-0.25,1.41,0.09,1.66,0.76c0.25,0.67-0.09,1.41-0.76,1.66L480,236v21.26l63.81-24.48c0.67-0.26,1.41,0.07,1.67,0.74
	c0.26,0.67-0.07,1.41-0.74,1.67l0,0l-65.56,25.16C479.03,260.41,478.86,260.45,478.7,260.46z"/>
<path class="st0" d="M408.14,294.47l137-50.82l131.46,50.82l-18.79,30.93l-6.63,45.29c0,0,0,15.47-3.31,18.78
	s-101.64,64.07-205.48,0c0,0-3.31-6.63-4.42-19.89l-6.08-41.43L408.14,294.47z"/>
<path class="st1" d="M543.73,420.37c-30,0-65.72-6.88-102.25-29.42c-0.27-0.17-0.49-0.41-0.63-0.69c-0.14-0.28-3.47-7.06-4.59-20.46
	l-6-41l-23.52-33.36c-0.55-0.77-0.37-1.84,0.4-2.39c0.12-0.09,0.26-0.16,0.4-0.21l137-50.82c0.39-0.15,0.83-0.15,1.22,0
	l131.44,50.86c0.47,0.19,0.83,0.57,1,1.05c0.17,0.48,0.11,1.02-0.16,1.45L659.46,326l-6.56,44.83c0,3-0.24,16.29-3.82,19.87
	c-1.53,1.53-27.29,18-65.92,25.74C570.18,419.04,556.97,420.36,543.73,420.37z M443.73,388.29C497,421,548.39,419.83,582.19,413.12
	c37.81-7.52,62.81-23.31,64.46-24.86c1.93-1.93,2.8-11.43,2.81-17.56c0-0.08,0-0.17,0-0.25l6.63-45.29
	c0.03-0.23,0.11-0.45,0.23-0.64l17.71-29.18L545.11,245.5l-134.28,49.81l22.46,31.87c0.16,0.22,0.26,0.47,0.3,0.74l6.08,41.43
	c0,0.04,0,0.07,0,0.11C440.59,380.33,443,386.66,443.73,388.29L443.73,388.29z"/>
<path class="st2" d="M545.73,418.69c-31.2,0.37-66.93-6.75-103.34-29.21c0,0-3.31-6.63-4.42-19.89l-6.08-41.43l-23.75-33.69
	l137-50.82"/>
<path class="st1" d="M543.42,420.43c-35.93,0-70.22-9.91-101.93-29.48c-0.27-0.17-0.49-0.41-0.63-0.69
	c-0.14-0.28-3.47-7.06-4.59-20.46l-6-41l-23.52-33.36c-0.55-0.77-0.37-1.84,0.4-2.39c0.12-0.09,0.26-0.16,0.4-0.21l137-50.82
	l1.2,3.22l-134.89,50l22.46,31.87c0.16,0.22,0.26,0.47,0.3,0.74l6.08,41.43c0,0.04,0,0.07,0,0.11c0.91,10.88,3.35,17.21,4.05,18.84
	c31.72,19.46,66.07,29.1,102,28.68v3.44L543.42,420.43z"/>
<line class="st3" x1="513.19" y1="342.09" x2="546.25" y2="335.59"/>
<line class="st3" x1="529.05" y1="364.58" x2="546.25" y2="334.78"/>
<line class="st3" x1="564" y1="365.12" x2="546.39" y2="334.78"/>
<line class="st3" x1="580.8" y1="341.28" x2="546.12" y2="334.78"/>
<line class="st3" x1="573.08" y1="312.01" x2="545.85" y2="334.78"/>
<line class="st3" x1="518.21" y1="312.83" x2="545.85" y2="334.78"/>
<circle class="st4" cx="546.14" cy="334.8" r="34.3"/>
<line class="st3" x1="545.85" y1="298.6" x2="545.85" y2="334.78"/>
<path class="st1" d="M545.88,307.08c15.28,0,27.67,12.39,27.67,27.67c0,15.28-12.39,27.67-27.67,27.67
	c-15.28,0-27.67-12.39-27.67-27.67l0,0C518.21,319.47,530.6,307.08,545.88,307.08 M545.88,304.93c-16.47,0-29.82,13.35-29.82,29.82
	s13.35,29.82,29.82,29.82c16.47,0,29.82-13.35,29.82-29.82C575.68,318.29,562.34,304.95,545.88,304.93z"/>
<circle class="st1" cx="546.29" cy="335.03" r="3.81"/>
<path class="st1" d="M548.94,300.14h-6.12c-0.33,0-0.59-0.26-0.59-0.59v0v-0.34c0-0.33,0.26-0.59,0.59-0.59l0,0h6.12
	c0.33,0,0.59,0.26,0.59,0.59v0v0.34C549.53,299.88,549.27,300.14,548.94,300.14L548.94,300.14z"/>
<path class="st1" d="M544.12,298.63c-0.28-0.14-0.39-0.48-0.25-0.75c0.05-0.11,0.14-0.19,0.25-0.25c-0.17-0.76-0.08-1.56,0.25-2.26
	c0.37-0.83,0.46-1.76,0.25-2.64c0,0-2.94-8.93,1.51-8.93c4,0,1.38,8.93,1.38,8.93c-0.22,0.92-0.17,1.88,0.13,2.77
	c0.32,0.68,0.32,1.46,0,2.14c0.3,0.18,0.4,0.57,0.22,0.88c-0.03,0.04-0.06,0.09-0.09,0.12L544.12,298.63L544.12,298.63z"/>
<path class="st1" d="M520.74,310.85l-3.74,4.81c-0.2,0.25-0.57,0.3-0.82,0.1l-0.27-0.21c-0.25-0.2-0.3-0.57-0.1-0.82l3.79-4.81
	c0.2-0.25,0.57-0.3,0.82-0.1l0.27,0.21C520.93,310.24,520.95,310.61,520.74,310.85z"/>
<path class="st1" d="M516.57,313.7c0,0-0.86,0.28-0.79-0.62c-0.71-0.34-1.28-0.9-1.62-1.6c-0.42-0.8-1.1-1.45-1.92-1.83
	c0,0-8.83-3.22-6.08-6.71c2.49-3.16,7.87,4.44,7.87,4.44c0.59,0.74,1.36,1.29,2.25,1.61c0.73,0.16,1.35,0.65,1.68,1.32
	c0.33-0.13,0.7,0.03,0.83,0.36c0.02,0.05,0.03,0.1,0.04,0.16L516.57,313.7z"/>
<path class="st1" d="M511.71,339.65l1.3,6c0.07,0.32-0.13,0.63-0.45,0.7l-0.33,0.07c-0.32,0.07-0.63-0.13-0.7-0.45l-1.3-6
	c-0.07-0.32,0.13-0.63,0.45-0.7l0.33-0.07C511.33,339.13,511.64,339.33,511.71,339.65z"/>
<path class="st1" d="M511.25,344.68c0,0-0.33,0.84-1,0.21c-0.71,0.33-1.51,0.41-2.27,0.23c-0.89-0.19-1.82-0.08-2.64,0.31
	c0,0-8.11,4.76-9.05,0.41c-0.85-3.93,8.44-3.24,8.44-3.24c0.94,0.02,1.87-0.23,2.68-0.71c0.59-0.46,1.36-0.63,2.09-0.45
	c0.1-0.34,0.45-0.54,0.79-0.44c0.08,0.02,0.15,0.06,0.21,0.1L511.25,344.68z"/>
<path class="st1" d="M580.65,338.15l-1.09,6c-0.05,0.32,0.15,0.62,0.47,0.68l0.33,0.06c0.32,0.05,0.62-0.15,0.68-0.47l1.09-6
	c0.05-0.32-0.15-0.62-0.47-0.68l-0.33-0.06C581.02,337.62,580.71,337.83,580.65,338.15C580.65,338.14,580.65,338.15,580.65,338.15z"
	/>
<path class="st1" d="M581.28,343.17c0,0,0.36,0.83,1,0.18c0.72,0.3,1.52,0.36,2.27,0.15c0.88-0.22,1.81-0.14,2.64,0.22
	c0,0,8.27,4.48,9.06,0.1c0.71-4-8.54-2.95-8.54-2.95c-0.94,0.05-1.88-0.16-2.7-0.62c-0.61-0.44-1.38-0.58-2.1-0.38
	c-0.1-0.33-0.46-0.52-0.79-0.41c-0.08,0.02-0.15,0.06-0.21,0.11L581.28,343.17z"/>
<path class="st1" d="M570.62,310.15l3.86,4.76c0.2,0.25,0.57,0.29,0.82,0.09l0.26-0.21c0.25-0.2,0.29-0.57,0.09-0.82l-3.86-4.76
	c-0.2-0.25-0.57-0.29-0.82-0.09l-0.26,0.21c-0.25,0.19-0.3,0.55-0.11,0.8C570.61,310.14,570.61,310.14,570.62,310.15z"/>
<path class="st1" d="M574.83,312.94c0,0,0.87,0.27,0.78-0.63c0.7-0.35,1.26-0.92,1.6-1.62c0.41-0.81,1.07-1.46,1.89-1.86
	c0,0,8.79-3.35,6-6.8c-2.54-3.13-7.81,4.55-7.81,4.55c-0.58,0.74-1.35,1.31-2.23,1.65c-0.73,0.17-1.34,0.67-1.66,1.35
	c-0.33-0.12-0.7,0.05-0.82,0.38c-0.02,0.05-0.03,0.11-0.04,0.16L574.83,312.94z"/>
<path class="st1" d="M532,366.84l-5.23-3.19c-0.28-0.17-0.64-0.08-0.81,0.2l-0.18,0.29c-0.17,0.28-0.08,0.64,0.2,0.81l5.23,3.19
	c0.28,0.17,0.64,0.08,0.81-0.2l0.18-0.29C532.36,367.37,532.27,367.02,532,366.84z"/>
<path class="st1" d="M527.13,365.62c0,0-0.91,0-0.52,0.86c-0.56,0.55-0.91,1.28-1,2.06c-0.11,0.9-0.52,1.74-1.16,2.39
	c0,0-7.16,6.09-3.36,8.41c3.44,2.1,5.83-6.9,5.83-6.9c0.29-0.9,0.83-1.69,1.55-2.3c0.63-0.41,1.04-1.08,1.11-1.83
	c0.35,0.01,0.64-0.26,0.65-0.61c0-0.06,0-0.12-0.02-0.18L527.13,365.62z"/>
<path class="st1" d="M561,366.09l5.27-3.11c0.28-0.16,0.64-0.07,0.8,0.21l0.17,0.29c0.16,0.28,0.07,0.64-0.21,0.8l-5.27,3.11
	c-0.28,0.16-0.64,0.07-0.8-0.21l-0.17-0.29C560.63,366.61,560.72,366.25,561,366.09z"/>
<path class="st1" d="M565.91,364.94c0,0,0.91,0.05,0.51,0.87c0.53,0.57,0.86,1.3,0.93,2.08c0.1,0.9,0.5,1.75,1.13,2.4
	c0,0,7.07,6.2,3.24,8.46c-3.47,2.05-5.73-7-5.73-7c-0.28-0.9-0.81-1.7-1.52-2.32c-0.62-0.42-1.02-1.09-1.09-1.84
	c-0.35,0-0.64-0.29-0.64-0.64c0-0.05,0.01-0.11,0.02-0.16L565.91,364.94z"/>
<path class="st1" d="M332.77,596.3l-8.73-22h-43.47l-8.25,22h-29.51L289.92,484h26.33l46.64,112.3H332.77z M302.63,514l-14.28,38.55
	h28.24L302.63,514z"/>
<path class="st1" d="M427.57,596.3V586h-0.32c-2.63,4.1-6.41,7.33-10.87,9.28c-9.83,4.42-21.09,4.33-30.85-0.24
	c-4.54-2.24-8.57-5.4-11.82-9.28c-3.28-3.96-5.79-8.51-7.38-13.4c-1.7-5.11-2.56-10.47-2.54-15.86c-0.02-5.37,0.86-10.71,2.62-15.78
	c1.64-4.84,4.17-9.33,7.46-13.25c6.75-8.01,16.74-12.55,27.21-12.37c5.12-0.16,10.2,0.98,14.75,3.33c3.54,1.84,6.71,4.32,9.36,7.3
	h0.32v-49.35h26V596.3H427.57z M426.62,556.64c0-2.55-0.46-5.07-1.35-7.46c-0.87-2.38-2.16-4.58-3.81-6.5
	c-1.66-1.92-3.68-3.48-5.95-4.6c-2.47-1.2-5.19-1.79-7.93-1.75c-2.8-0.06-5.57,0.54-8.09,1.75c-4.51,2.19-7.93,6.14-9.44,10.92
	c-0.79,2.41-1.19,4.93-1.19,7.46c0.01,2.56,0.41,5.1,1.19,7.54c0.75,2.41,1.96,4.64,3.57,6.58c1.61,1.93,3.61,3.49,5.87,4.6
	c2.52,1.21,5.29,1.81,8.09,1.75c2.74,0.05,5.46-0.55,7.93-1.75c2.27-1.12,4.29-2.68,5.95-4.6c1.65-1.92,2.94-4.12,3.81-6.5
	C426.16,561.7,426.62,559.18,426.62,556.64z"/>
<path class="st1" d="M570.37,596.3v-43.15c0.01-2.15-0.16-4.3-0.48-6.42c-0.25-1.86-0.84-3.66-1.74-5.31
	c-0.82-1.45-1.99-2.68-3.41-3.57c-1.71-0.97-3.66-1.44-5.63-1.35c-2.02-0.05-4.02,0.45-5.79,1.43c-1.64,0.95-3.05,2.25-4.13,3.81
	c-1.14,1.66-1.98,3.51-2.46,5.47c-0.53,2.1-0.8,4.26-0.79,6.42v42.67h-26v-45c0-4.55-0.9-8.14-2.7-10.79c-1.8-2.65-4.66-3.98-8.57-4
	c-3.84-0.15-7.48,1.72-9.6,4.92c-2.36,3.57-3.55,7.78-3.41,12.06v42.81h-26.19v-79h25.22v11H495c1.01-1.77,2.2-3.42,3.57-4.92
	c1.5-1.65,3.24-3.07,5.16-4.2c2.11-1.26,4.38-2.24,6.74-2.93c7.59-2.07,15.68-1.22,22.68,2.38c4,2.36,7.22,5.84,9.28,10
	c2.56-4.04,6.04-7.41,10.15-9.84c4.6-2.55,9.81-3.81,15.07-3.65c4.69-0.18,9.35,0.8,13.57,2.86c3.48,1.82,6.5,4.42,8.8,7.61
	c2.24,3.17,3.88,6.71,4.84,10.47c0.98,3.7,1.49,7.51,1.51,11.34v48.88H570.37z"/>
<path class="st1" d="M641.55,492.08c0.01,1.94-0.39,3.86-1.19,5.63c-1.53,3.47-4.39,6.18-7.93,7.53c-1.84,0.74-3.81,1.12-5.79,1.11
	c-3.97,0.1-7.81-1.41-10.63-4.2c-2.77-2.61-4.32-6.26-4.28-10.07c0-1.88,0.37-3.74,1.11-5.47c0.72-1.72,1.8-3.26,3.17-4.52
	c1.4-1.29,3.01-2.33,4.76-3.09c1.85-0.8,3.85-1.21,5.87-1.19c1.98-0.01,3.95,0.37,5.79,1.11c1.76,0.69,3.38,1.7,4.76,3
	c1.34,1.29,2.41,2.83,3.17,4.52C641.16,488.21,641.56,490.14,641.55,492.08z M613.63,596.3v-79h26v79H613.63z"/>
<path class="st1" d="M708.92,538.72c-1.12-0.31-2.26-0.52-3.41-0.63c-1.11-0.1-2.2-0.16-3.25-0.16c-3.04-0.1-6.07,0.56-8.8,1.9
	c-2.2,1.12-4.14,2.68-5.71,4.59c-1.4,1.73-2.45,3.72-3.09,5.85c-0.58,1.79-0.9,3.66-0.95,5.54v40.5h-26V517.4h25.06v11.42h0.32
	c1.95-3.99,4.9-7.4,8.57-9.9c3.78-2.59,8.27-3.93,12.85-3.84c1.06,0,2.09,0.06,3.09,0.16c0.83,0.07,1.66,0.23,2.46,0.48
	L708.92,538.72z"/>
<path class="st1" d="M718.14,528.09c4.65-4.45,10.19-7.85,16.26-10c6.09-2.21,12.52-3.33,19-3.33c5.73-0.14,11.44,0.69,16.89,2.46
	c4.35,1.47,8.22,4.1,11.18,7.61c3.04,3.81,5.18,8.25,6.27,13c1.42,6.11,2.1,12.37,2,18.64v39.82h-23.8v-8.39h-0.48
	c-2.18,3.42-5.36,6.08-9.12,7.61c-4.18,1.82-8.69,2.74-13.25,2.7c-3.32-0.02-6.62-0.44-9.84-1.27c-3.31-0.81-6.45-2.21-9.28-4.12
	c-2.86-1.97-5.22-4.57-6.9-7.61c-1.91-3.61-2.84-7.66-2.7-11.74c0-5.71,1.56-10.31,4.68-13.8c3.31-3.62,7.45-6.4,12.06-8.09
	c5.28-1.99,10.8-3.27,16.42-3.81c5.85-0.63,11.73-0.94,17.61-0.95v-1.27c0-3.91-1.37-6.8-4.12-8.65c-3.03-1.93-6.56-2.9-10.15-2.78
	c-3.7,0-7.36,0.81-10.71,2.38c-3.21,1.44-6.18,3.37-8.8,5.71L718.14,528.09z M765.89,561.88h-3.33c-2.85,0-5.74,0.13-8.65,0.4
	c-2.64,0.21-5.24,0.72-7.77,1.51c-2.1,0.64-4.03,1.75-5.63,3.25c-1.5,1.48-2.31,3.52-2.22,5.63c-0.05,1.34,0.3,2.67,1,3.81
	c0.67,1.04,1.56,1.91,2.62,2.54c1.13,0.66,2.36,1.12,3.65,1.35c1.32,0.26,2.66,0.4,4,0.4c5.29,0,9.34-1.45,12.14-4.36
	c2.8-2.91,4.2-6.85,4.2-11.82v-2.71H765.89z"/>
<path class="st1" d="M807.07,596.3V476.37h26.49V596.3H807.07z"/>
</svg>
