<?xml version="1.0" encoding="utf-8"?>
<!-- Generator: Adobe Illustrator 23.1.1, SVG Export Plug-In . SVG Version: 6.00 Build 0)  -->
<svg version="1.1" id="Layer_1" xmlns="http://www.w3.org/2000/svg" xmlns:xlink="http://www.w3.org/1999/xlink" x="0px" y="0px"
	 viewBox="0 0 464 484.32" style="enable-background:new 0 0 464 484.32;" xml:space="preserve">
<style type="text/css">
	.st0{fill:#2E70AF;}
	.st1{fill:#FFFFFF;}
	.st2{fill:#333A65;}
	.st3{fill:none;stroke:#FFFFFF;stroke-width:2.15;stroke-linecap:round;stroke-linejoin:round;}
	.st4{fill:none;stroke:#FFFFFF;stroke-width:2.15;stroke-miterlimit:10;}
</style>
<title>admiral_logo_final</title>
<polygon class="st0" points="216.29,218.58 216.29,206.2 250.53,193.09 284.04,205.47 284.04,218.58 250.53,208.38 "/>
<path class="st1" d="M216.29,219.87c-0.71-0.01-1.28-0.58-1.29-1.29V206.2c0-0.54,0.33-1.02,0.83-1.21l34.24-13.11
	c0.29-0.11,0.62-0.11,0.91,0l33.51,12.38c0.5,0.19,0.84,0.67,0.84,1.21v13.11c-0.02,0.39-0.21,0.76-0.52,1
	c-0.33,0.24-0.76,0.31-1.15,0.19l-33.13-10.08l-33.87,10.09C216.54,219.83,216.42,219.86,216.29,219.87z M217.58,207.08v9.77
	l32.58-9.7c0.24-0.08,0.51-0.08,0.75,0l31.84,9.69v-10.47l-32.21-11.91L217.58,207.08z"/>
<polyline class="st2" points="250.53,208.38 216.29,218.58 216.29,206.2 250.53,193.09 "/>
<path class="st1" d="M216.29,219.66c-0.59-0.01-1.06-0.49-1.07-1.08V206.2c0-0.44,0.27-0.84,0.69-1l34.23-13.11
	c0.55-0.21,1.18,0.07,1.39,0.62c0.22,0.54-0.05,1.16-0.59,1.38c-0.01,0-0.02,0.01-0.03,0.01l-33.54,12.85v10.2l32.85-9.79
	c0.57-0.17,1.17,0.16,1.34,0.73c0.17,0.57-0.15,1.16-0.72,1.33l-34.24,10.2C216.5,219.65,216.39,219.66,216.29,219.66z"/>
<path class="st2" d="M246.77,112.5c-2.76-1.15-6.55-1.73-11.3-1.73c-28.67,0-82.56,21.12-83.11,21.33
	c-11.09,3.68-21.43,5.54-30.77,5.54c-25.27,0-35.17-13.26-35.58-13.82l-1-1.42l29.83-10L104,76.43l3.29,2.73
	c7.1,5.89,16.26,8.88,27.23,8.87C158.4,88,183,73.81,183.29,73.67c12.66-7,25.73-10.52,38.87-10.52c8.4-0.04,16.74,1.45,24.61,4.41
	V59c0-1.9,1.54-3.44,3.44-3.44s3.44,1.54,3.44,3.44v128.38l-3.17-1.18l-3.71,1.42V112.5z"/>
<path class="st1" d="M250.21,56.84c1.19,0,2.15,0.96,2.15,2.15V59v126.52l-1.89-0.7l-2.41,0.92v-74.08
	c-3.15-1.53-7.48-2.18-12.59-2.18c-29.24,0-83.58,21.42-83.58,21.42c-11.95,4-22,5.45-30.3,5.45c-24.9,0-34.53-13.29-34.53-13.29
	l29.35-9.87l-10-33c8.17,6.77,18.08,9.17,28.06,9.17c24.53,0,49.43-14.54,49.43-14.54c14.27-7.87,27.38-10.34,38.22-10.34
	c8.88-0.04,17.68,1.65,25.9,5V59c0.01-1.19,0.96-2.14,2.15-2.15 M250.17,54.27c-2.59,0.03-4.68,2.14-4.69,4.73v6.72
	c-7.5-2.58-15.39-3.88-23.32-3.85c-13.36,0-26.64,3.59-39.47,10.67l0,0l0,0c-0.24,0.14-24.61,14.19-48.13,14.19
	c-10.66,0-19.54-2.89-26.41-8.59l-6.58-5.46l2.43,8.21l9.23,30.65l-27,9.08l-3.32,1.12l2.06,2.84c0.42,0.58,10.7,14.35,36.62,14.35
	c9.48,0,20-1.88,31.11-5.58h0.07h0.07c0.54-0.21,54.22-21.24,82.63-21.24c3.38-0.1,6.76,0.35,10,1.32v76.11l3.51-1.34l1.5-0.57
	l1,0.36l3.47,1.29V59c-0.01-2.61-2.12-4.72-4.73-4.73H250.17z"/>
<polygon class="st0" points="185.7,263.69 185.7,239.65 250.53,215.61 313.17,237.46 313.17,263.69 251.26,238.53 "/>
<path class="st1" d="M313.17,265c-0.16,0-0.33-0.04-0.48-0.1l-61.45-25l-65.08,25c-0.67,0.25-1.41-0.08-1.67-0.75
	c-0.06-0.15-0.08-0.3-0.08-0.45v-24c0-0.54,0.33-1.02,0.84-1.21l64.83-24c0.28-0.11,0.59-0.11,0.87,0l62.65,21.85
	c0.52,0.18,0.86,0.67,0.86,1.22v26.23c0,0.43-0.21,0.83-0.56,1.07C313.67,264.97,313.42,265.02,313.17,265z M187,240.54v21.27
	l63.81-24.48c0.3-0.12,0.64-0.12,0.94,0l60.14,24.44v-23.39L250.54,217L187,240.54z"/>
<polyline class="st2" points="251.26,238.53 185.7,263.69 185.7,239.65 250.53,215.61 "/>
<path class="st1" d="M185.7,265c-0.71-0.01-1.28-0.58-1.29-1.29v-24c0-0.54,0.33-1.02,0.84-1.21l64.83-24
	c0.67-0.25,1.41,0.09,1.66,0.76s-0.09,1.41-0.76,1.66l-64,23.72v21.27l63.81-24.48c0.64-0.31,1.41-0.05,1.72,0.6
	c0.31,0.64,0.05,1.41-0.6,1.72c-0.07,0.03-0.14,0.06-0.21,0.08l-65.56,25.16C186,265.02,185.85,265.02,185.7,265z"/>
<path class="st0" d="M115.14,299l137-50.82L383.59,299l-18.78,30.93l-6.63,45.3c0,0,0,15.46-3.31,18.78s-101.64,64.07-205.49,0
	c0,0-3.31-6.63-4.41-19.89l-6.08-41.42L115.14,299z"/>
<path class="st1" d="M250.73,424.89c-30,0-65.71-6.88-102.25-29.43c-0.27-0.17-0.49-0.41-0.63-0.69s-3.47-7.06-4.59-20.46l-6-41
	L113.73,300c-0.31-0.44-0.39-0.99-0.23-1.5c0.14-0.5,0.51-0.91,1-1.1l137-50.82c0.39-0.15,0.83-0.15,1.22,0l131.46,50.82
	c0.88,0.34,1.33,1.32,0.99,2.21c-0.04,0.1-0.08,0.19-0.14,0.28l-18.6,30.64l-6.56,44.82c0,3-0.24,16.29-3.82,19.87
	c-1.53,1.53-27.29,18-65.92,25.75C277.16,423.56,263.96,424.88,250.73,424.89z M150.73,392.81
	c53.27,32.66,104.66,31.54,138.47,24.83c37.85-7.51,62.82-23.31,64.45-24.86c1.94-1.93,2.81-11.43,2.81-17.56
	c-0.01-0.08-0.01-0.17,0-0.25l6.63-45.3c0.03-0.23,0.11-0.44,0.23-0.64l17.71-29.18L252.11,250l-134.28,49.83l22.46,31.86
	c0.16,0.22,0.26,0.48,0.3,0.75l6.08,41.42c0,0,0,0.07,0,0.11C147.59,384.85,150,391.18,150.73,392.81L150.73,392.81z"/>
<path class="st2" d="M252.73,423.21c-31.2,0.37-66.93-6.74-103.35-29.21c0,0-3.31-6.63-4.41-19.89l-6.08-41.42L115.14,299l137-50.82
	"/>
<path class="st1" d="M250.42,425c-35.94,0-70.22-9.92-101.94-29.49c-0.27-0.17-0.49-0.41-0.63-0.69s-3.47-7.06-4.59-20.46l-6-41
	L113.73,300c-0.31-0.44-0.39-0.99-0.23-1.5c0.14-0.5,0.51-0.91,1-1.1l137-50.82l1.19,3.23l-134.89,50l22.46,31.86
	c0.16,0.22,0.26,0.48,0.3,0.75l6.08,41.42c0,0,0,0.07,0,0.11c0.91,10.88,3.35,17.21,4.05,18.84c31.72,19.46,66.07,29.1,102,28.68
	v3.44L250.42,425z"/>
<line class="st3" x1="220.19" y1="346.61" x2="253.25" y2="340.11"/>
<line class="st3" x1="236.05" y1="369.1" x2="253.25" y2="339.29"/>
<line class="st3" x1="271" y1="369.64" x2="253.39" y2="339.29"/>
<line class="st3" x1="287.8" y1="345.8" x2="253.12" y2="339.29"/>
<line class="st3" x1="280.08" y1="316.53" x2="252.85" y2="339.29"/>
<line class="st3" x1="225.21" y1="317.35" x2="252.85" y2="339.29"/>
<circle class="st4" cx="253.14" cy="339.31" r="34.3"/>
<line class="st3" x1="252.85" y1="303.12" x2="252.85" y2="339.29"/>
<path class="st1" d="M252.88,311.6c15.29-0.01,27.68,12.38,27.69,27.67s-12.38,27.68-27.67,27.69s-27.68-12.38-27.69-27.67
	c0-0.01,0-0.01,0-0.02C225.21,323.99,237.6,311.6,252.88,311.6 M252.88,309.45c-16.47-0.01-29.83,13.35-29.84,29.82
	s13.35,29.83,29.82,29.84c16.47,0.01,29.83-13.35,29.84-29.82c0-0.01,0-0.01,0-0.02C282.68,322.81,269.34,309.47,252.88,309.45z"/>
<circle class="st1" cx="253.29" cy="339.55" r="3.81"/>
<path class="st1" d="M249.82,303.15h6.12c0.33,0,0.59,0.26,0.59,0.59v0.33c0,0.33-0.26,0.59-0.59,0.59h-6.12
	c-0.33,0-0.59-0.26-0.59-0.59v-0.33C249.23,303.41,249.49,303.15,249.82,303.15z"/>
<path class="st1" d="M251.12,303.15c0,0-0.76-0.5,0-1c-0.17-0.76-0.08-1.56,0.25-2.27c0.37-0.83,0.46-1.76,0.25-2.64
	c0,0-2.94-8.93,1.51-8.93c4,0,1.39,8.93,1.39,8.93c-0.22,0.92-0.18,1.88,0.12,2.77c0.32,0.68,0.32,1.46,0,2.14
	c0.3,0.17,0.41,0.56,0.24,0.86c-0.03,0.05-0.07,0.1-0.11,0.14H251.12z"/>
<path class="st1" d="M222.76,319.25l3.79-4.81c0.2-0.26,0.57-0.3,0.83-0.1l0.26,0.2c0.26,0.2,0.3,0.57,0.1,0.83l-3.79,4.81
	c-0.2,0.26-0.57,0.3-0.83,0.1l-0.26-0.2C222.61,319.88,222.56,319.51,222.76,319.25z"/>
<path class="st1" d="M223.57,318.22c0,0-0.87,0.28-0.79-0.62c-0.71-0.34-1.28-0.9-1.63-1.6c-0.42-0.8-1.1-1.45-1.92-1.83
	c0,0-8.83-3.22-6.08-6.71c2.49-3.17,7.87,4.44,7.87,4.44c0.59,0.73,1.37,1.29,2.25,1.61c0.73,0.16,1.35,0.65,1.68,1.32
	c0.33-0.13,0.7,0.03,0.83,0.36c0.02,0.05,0.03,0.11,0.04,0.17L223.57,318.22z"/>
<path class="st1" d="M218.52,350.47l-1.29-5.98c-0.07-0.32,0.13-0.63,0.45-0.7l0.32-0.07c0.32-0.07,0.63,0.13,0.7,0.45l1.29,5.98
	c0.07,0.32-0.13,0.63-0.45,0.7l-0.32,0.07C218.91,350.99,218.59,350.79,218.52,350.47z"/>
<path class="st1" d="M218.25,349.2c0,0-0.33,0.84-1,0.21c-0.71,0.33-1.51,0.41-2.27,0.23c-0.89-0.18-1.81-0.07-2.63,0.32
	c0,0-8.11,4.76-9.05,0.41c-0.85-3.93,8.44-3.24,8.44-3.24c0.94,0.01,1.86-0.23,2.67-0.71c0.59-0.46,1.36-0.62,2.09-0.45
	c0.1-0.34,0.45-0.54,0.79-0.44c0.08,0.02,0.15,0.06,0.21,0.1L218.25,349.2z"/>
<path class="st1" d="M286.58,348.71l1.09-6.02c0.06-0.32,0.36-0.53,0.69-0.48l0.32,0.06c0.32,0.06,0.53,0.36,0.48,0.69l-1.09,6.02
	c-0.06,0.32-0.36,0.53-0.69,0.48l-0.32-0.06C286.74,349.34,286.52,349.03,286.58,348.71z"/>
<path class="st1" d="M288.28,347.68c0,0,0.36,0.84,1,0.18c0.72,0.31,1.52,0.36,2.27,0.16c0.88-0.22,1.81-0.14,2.65,0.22
	c0,0,8.26,4.48,9,0.1c0.72-4-8.54-2.95-8.54-2.95c-0.94,0.05-1.87-0.16-2.7-0.61c-0.61-0.44-1.39-0.58-2.11-0.38
	c-0.1-0.33-0.45-0.52-0.78-0.42c-0.08,0.02-0.15,0.06-0.22,0.11L288.28,347.68z"/>
<path class="st1" d="M281.42,319.44l-3.86-4.75c-0.21-0.25-0.17-0.62,0.09-0.83l0.26-0.21c0.25-0.21,0.62-0.17,0.83,0.09l3.86,4.75
	c0.21,0.25,0.17,0.62-0.09,0.83l-0.26,0.21C282,319.73,281.63,319.69,281.42,319.44z"/>
<path class="st1" d="M281.83,317.46c0,0,0.86,0.27,0.78-0.63c0.7-0.35,1.26-0.92,1.6-1.63c0.41-0.81,1.07-1.46,1.89-1.86
	c0,0,8.79-3.34,6-6.8c-2.54-3.12-7.81,4.56-7.81,4.56c-0.58,0.74-1.35,1.31-2.23,1.64c-0.73,0.17-1.34,0.67-1.66,1.35
	c-0.33-0.12-0.7,0.05-0.82,0.38c-0.02,0.05-0.03,0.11-0.04,0.16L281.83,317.46z"/>
<path class="st1" d="M233.77,368.19l5.22,3.19c0.28,0.17,0.37,0.53,0.2,0.81l-0.17,0.28c-0.17,0.28-0.53,0.37-0.81,0.2l-5.22-3.19
	c-0.28-0.17-0.37-0.53-0.2-0.81l0.17-0.28C233.13,368.1,233.5,368.02,233.77,368.19z"/>
<path class="st1" d="M234.13,370.13c0,0-0.9,0-0.52,0.86c-0.56,0.56-0.91,1.29-1,2.07c-0.11,0.9-0.52,1.74-1.16,2.38
	c0,0-7.16,6.1-3.36,8.41C231.56,386,234,377,234,377c0.29-0.9,0.83-1.69,1.55-2.3c0.63-0.41,1.04-1.08,1.11-1.82
	c0.36,0,0.65-0.28,0.66-0.64c0-0.05-0.01-0.11-0.02-0.16L234.13,370.13z"/>
<path class="st1" d="M274.03,368.83l-5.27,3.11c-0.28,0.17-0.64,0.07-0.81-0.21l-0.17-0.28c-0.17-0.28-0.07-0.64,0.21-0.81
	l5.27-3.11c0.28-0.17,0.64-0.07,0.81,0.21l0.17,0.28C274.41,368.31,274.31,368.67,274.03,368.83z"/>
<path class="st1" d="M272.91,369.46c0,0,0.91,0.05,0.51,0.86c0.54,0.57,0.87,1.3,0.94,2.08c0.1,0.9,0.49,1.75,1.12,2.4
	c0,0,7.08,6.2,3.25,8.46c-3.47,2.05-5.74-7-5.74-7c-0.28-0.9-0.8-1.7-1.51-2.32c-0.62-0.42-1.02-1.09-1.09-1.84
	c-0.35,0-0.64-0.28-0.64-0.64c0-0.06,0.01-0.12,0.02-0.17L272.91,369.46z"/>
</svg>
