<svg id="Layer_1" data-name="Layer 1" xmlns="http://www.w3.org/2000/svg" viewBox="0 0 1104.09 799.02"><defs><style>.cls-1{fill:#2e70af;}.cls-2{fill:#333a65;}.cls-3,.cls-4{fill:none;stroke:#fff;stroke-width:2.15px;}.cls-3{stroke-linecap:round;stroke-linejoin:round;}.cls-4{stroke-miterlimit:10;}.cls-5{fill:#fff;}</style></defs><title>admiral_logo_final</title><polygon class="cls-1" points="506.17 271.48 506.17 259.1 540.4 245.99 573.91 258.37 573.91 271.48 540.4 261.28 506.17 271.48"/><polyline class="cls-2" points="540.4 261.28 506.17 271.48 506.17 259.1 540.4 245.99"/><path class="cls-2" d="M536.94,165.21c-2.81-1.21-6.71-1.83-11.59-1.83-28.73,0-82.68,21.14-83.22,21.35-11.05,3.67-21.35,5.52-30.67,5.52-25.12,0-34.94-13.14-35.34-13.7l-.8-1.1,29.72-10-10.63-35.29,2.56,2.12c7.15,5.94,16.38,8.95,27.41,8.95,24,0,48.68-14.26,48.93-14.41,12.61-7,25.64-10.48,38.72-10.48a68.84,68.84,0,0,1,24.91,4.54v-9a3.15,3.15,0,1,1,6.3,0v128l-2.89-1.07-3.41,1.31Z"/><path class="cls-2" d="M540.09,109.74a2.16,2.16,0,0,1,2.15,2.15V238.42l-1.9-.7-2.4.93V164.56c-3.16-1.53-7.49-2.18-12.59-2.18-29.25,0-83.59,21.42-83.59,21.42-11.95,4-22,5.45-30.3,5.45-24.9,0-34.53-13.29-34.53-13.29l29.35-9.87-9.95-33c8.16,6.77,18.08,9.18,28.06,9.18,24.53,0,49.42-14.54,49.42-14.54,14.28-7.88,27.39-10.35,38.22-10.35a67.94,67.94,0,0,1,25.91,5V111.89a2.15,2.15,0,0,1,2.15-2.15m0-2a4.16,4.16,0,0,0-4.15,4.15v7.55a70.32,70.32,0,0,0-23.91-4.1c-13.26,0-26.44,3.56-39.18,10.59-.29.17-24.78,14.3-48.46,14.3-10.81,0-19.82-2.94-26.79-8.72l-5.1-4.23,1.91,6.35,9.39,31.18-27.51,9.26-2.58.87,1.6,2.2c.42.57,10.52,14.11,36.15,14.11,9.42,0,19.83-1.87,30.93-5.55h.06l.05,0c.54-.21,54.32-21.28,82.85-21.28a30.92,30.92,0,0,1,10.59,1.5v75.67l2.71-1,1.71-.65,1.18.44,2.7,1V111.89a4.17,4.17,0,0,0-4.15-4.15Z"/><polygon class="cls-1" points="475.57 316.59 475.57 292.55 540.4 268.51 603.05 290.36 603.05 316.59 541.13 291.43 475.57 316.59"/><polyline class="cls-2" points="541.13 291.43 475.57 316.59 475.57 292.55 540.4 268.51"/><path class="cls-1" d="M405,351.89l137-50.82,131.46,50.82-18.78,30.93-6.63,45.3s0,15.47-3.31,18.78S543.1,511,439.26,446.9c0,0-3.32-6.63-4.42-19.89l-6.08-41.42Z"/><path class="cls-2" d="M542.6,476.11c-31.2.38-66.93-6.74-103.34-29.21,0,0-3.32-6.63-4.42-19.89l-6.08-41.42L405,351.89l137-50.82"/><line class="cls-3" x1="510.07" y1="399.51" x2="543.13" y2="393.01"/><line class="cls-3" x1="525.92" y1="422" x2="543.13" y2="392.2"/><line class="cls-3" x1="560.87" y1="422.54" x2="543.26" y2="392.2"/><line class="cls-3" x1="577.67" y1="398.7" x2="542.99" y2="392.2"/><line class="cls-3" x1="569.95" y1="369.43" x2="542.72" y2="392.2"/><line class="cls-3" x1="515.08" y1="370.25" x2="542.72" y2="392.2"/><circle class="cls-4" cx="543.01" cy="392.22" r="34.3"/><line class="cls-3" x1="542.72" y1="356.02" x2="542.72" y2="392.2"/><path class="cls-5" d="M542.75,364.5a27.68,27.68,0,1,1-27.67,27.68,27.67,27.67,0,0,1,27.67-27.68m0-2.15a29.83,29.83,0,1,0,29.82,29.83,29.86,29.86,0,0,0-29.82-29.83Z"/><circle class="cls-5" cx="543.16" cy="392.45" r="3.81"/><rect class="cls-5" x="539.1" y="356.05" width="7.3" height="1.51" rx="0.59"/><path class="cls-5" d="M541,356.05s-.75-.5,0-1a3.53,3.53,0,0,1,.25-2.27,4.12,4.12,0,0,0,.25-2.64s-2.93-8.93,1.51-8.93c4,0,1.39,8.93,1.39,8.93a5.1,5.1,0,0,0,.12,2.77,2.44,2.44,0,0,1,0,2.14.63.63,0,0,1,.13,1Z"/><rect class="cls-5" x="511.47" y="369.45" width="7.3" height="1.51" rx="0.59" transform="translate(-94.42 545.87) rotate(-51.78)"/><path class="cls-5" d="M513.44,371.12s-.86.29-.79-.62a3.51,3.51,0,0,1-1.63-1.6,4.15,4.15,0,0,0-1.92-1.83s-8.83-3.22-6.08-6.71c2.49-3.16,7.87,4.44,7.87,4.44a5.13,5.13,0,0,0,2.26,1.61,2.46,2.46,0,0,1,1.68,1.32.64.64,0,0,1,.87.53Z"/><rect class="cls-5" x="504.84" y="399.46" width="7.3" height="1.51" rx="0.59" transform="translate(224.87 981.85) rotate(-102.21)"/><path class="cls-5" d="M508.12,402.1s-.33.84-1,.21a3.45,3.45,0,0,1-2.26.23,4.17,4.17,0,0,0-2.64.32s-8.11,4.76-9.05.41c-.85-3.93,8.44-3.24,8.44-3.24a5,5,0,0,0,2.68-.71,2.48,2.48,0,0,1,2.09-.45.63.63,0,0,1,1-.34Z"/><rect class="cls-5" x="574.07" y="397.96" width="7.3" height="1.51" rx="0.59" transform="translate(82.76 896.46) rotate(-79.77)"/><path class="cls-5" d="M578.15,400.59a.56.56,0,0,0,1,.17,3.53,3.53,0,0,0,2.28.16,4.12,4.12,0,0,1,2.64.22s8.27,4.48,9.06.1c.71-4-8.55-2.95-8.55-2.95a5.06,5.06,0,0,1-2.7-.61,2.46,2.46,0,0,0-2.1-.38.63.63,0,0,0-1-.3Z"/><rect class="cls-5" x="566.36" y="368.71" width="7.3" height="1.51" rx="0.59" transform="translate(642.24 1044.89) rotate(-129.06)"/><path class="cls-5" d="M571.7,370.36s.87.27.78-.63a3.5,3.5,0,0,0,1.6-1.63,4.13,4.13,0,0,1,1.89-1.86s8.79-3.34,6-6.79c-2.54-3.13-7.81,4.55-7.81,4.55a5.11,5.11,0,0,1-2.23,1.64,2.49,2.49,0,0,0-1.66,1.35.64.64,0,0,0-.86.54Z"/><rect class="cls-5" x="522.25" y="422.55" width="7.3" height="1.51" rx="0.59" transform="translate(297.41 -211.95) rotate(31.39)"/><path class="cls-5" d="M524,423s-.9,0-.52.85a3.48,3.48,0,0,0-1,2.07,4.16,4.16,0,0,1-1.17,2.38s-7.15,6.1-3.36,8.42c3.44,2.09,5.83-6.91,5.83-6.91a5.1,5.1,0,0,1,1.55-2.3,2.47,2.47,0,0,0,1.12-1.82.64.64,0,0,0,.63-.79Z"/><rect class="cls-5" x="557.24" y="421.85" width="7.3" height="1.51" rx="0.59" transform="translate(1258.74 501.25) rotate(149.43)"/><path class="cls-5" d="M562.78,422.36s.91.05.52.87a3.46,3.46,0,0,1,.93,2.07,4.12,4.12,0,0,0,1.13,2.41s7.07,6.19,3.24,8.45c-3.47,2-5.73-7-5.73-7a5.06,5.06,0,0,0-1.52-2.32,2.47,2.47,0,0,1-1.09-1.84.64.64,0,0,1-.62-.81Z"/><path class="cls-2" d="M334.11,652.45l-8.73-22.05H281.91l-8.24,22.05H244.16l47.11-112.32h26.34l46.64,112.32ZM304,570.12l-14.28,38.54h28.23Z"/><path class="cls-2" d="M428.91,652.45V642.14h-.32a24.7,24.7,0,0,1-10.87,9.28,35.52,35.52,0,0,1-15,3.25,35.06,35.06,0,0,1-15.86-3.49,36.36,36.36,0,0,1-11.82-9.28,40.66,40.66,0,0,1-7.38-13.41,49.84,49.84,0,0,1-2.54-15.86,47.85,47.85,0,0,1,2.62-15.78,41.16,41.16,0,0,1,7.46-13.25,34.78,34.78,0,0,1,27.2-12.37q8.73,0,14.76,3.33a33,33,0,0,1,9.36,7.29h.31V532.52h26V652.45Zm-1-39.66a21.37,21.37,0,0,0-1.35-7.46,20.82,20.82,0,0,0-3.8-6.5,18.87,18.87,0,0,0-5.95-4.6,17.55,17.55,0,0,0-7.93-1.75,17.88,17.88,0,0,0-8.09,1.75,18.25,18.25,0,0,0-9.44,10.94,23.76,23.76,0,0,0-1.19,7.46,24.38,24.38,0,0,0,1.19,7.53,19.29,19.29,0,0,0,3.57,6.59,17.52,17.52,0,0,0,14,6.34,17.54,17.54,0,0,0,7.93-1.74,19,19,0,0,0,5.95-4.6,20.87,20.87,0,0,0,3.8-6.51A21.28,21.28,0,0,0,428,612.79Z"/><path class="cls-2" d="M571.71,652.45V609.3a42,42,0,0,0-.48-6.43,15.51,15.51,0,0,0-1.74-5.31,10.15,10.15,0,0,0-3.41-3.57,10.46,10.46,0,0,0-5.64-1.35,11.35,11.35,0,0,0-5.79,1.43,12.81,12.81,0,0,0-4.12,3.81,16.65,16.65,0,0,0-2.46,5.47,25.66,25.66,0,0,0-.79,6.42v42.68h-26V607.4q0-6.82-2.7-10.79t-8.56-4a11,11,0,0,0-9.6,4.92A20.61,20.61,0,0,0,497,609.62v42.83H470.81v-79H496v10.94h.31a28.64,28.64,0,0,1,3.57-4.92,23,23,0,0,1,5.16-4.2,29.21,29.21,0,0,1,6.74-2.93,28.52,28.52,0,0,1,8.17-1.11,28.23,28.23,0,0,1,14.52,3.49,23.88,23.88,0,0,1,9.28,10,30.11,30.11,0,0,1,10.15-9.84q6.18-3.64,15.07-3.64,8.09,0,13.56,2.93a25.35,25.35,0,0,1,8.81,7.61,31.88,31.88,0,0,1,4.84,10.48,45.11,45.11,0,0,1,1.5,11.34v48.86Z"/><path class="cls-2" d="M642.89,548.22a13.55,13.55,0,0,1-1.19,5.64,14.26,14.26,0,0,1-7.94,7.53A15.45,15.45,0,0,1,628,562.5a14.55,14.55,0,0,1-10.62-4.2,13.6,13.6,0,0,1-4.29-10.08,13.89,13.89,0,0,1,1.11-5.47,12.88,12.88,0,0,1,3.18-4.52,17.07,17.07,0,0,1,4.75-3.09A14.29,14.29,0,0,1,628,534a15.45,15.45,0,0,1,5.79,1.11,14.59,14.59,0,0,1,4.76,3,14.76,14.76,0,0,1,3.18,4.52A13.54,13.54,0,0,1,642.89,548.22ZM615,652.45v-79h26v79Z"/><path class="cls-2" d="M710.26,594.86a19.54,19.54,0,0,0-3.41-.63c-1.11-.11-2.2-.16-3.26-.16a18.5,18.5,0,0,0-8.8,1.9,17.77,17.77,0,0,0-5.71,4.59,17.19,17.19,0,0,0-3.09,5.85,19.42,19.42,0,0,0-1,5.54v40.5H659V573.54h25.06V585h.32a25.78,25.78,0,0,1,8.57-9.9,22,22,0,0,1,12.84-3.83c1.06,0,2.09,0,3.1.15a12.44,12.44,0,0,1,2.46.48Z"/><path class="cls-2" d="M719.47,584.23a45.68,45.68,0,0,1,16.26-10,55.77,55.77,0,0,1,19-3.33,50.63,50.63,0,0,1,16.89,2.46A25.22,25.22,0,0,1,782.77,581,32.72,32.72,0,0,1,789,594a77,77,0,0,1,2,18.64v39.82h-23.8V644h-.47a19.52,19.52,0,0,1-9.12,7.61,32.43,32.43,0,0,1-13.25,2.7,40.4,40.4,0,0,1-9.84-1.27,28.76,28.76,0,0,1-9.28-4.12,22.39,22.39,0,0,1-6.9-7.62,23.46,23.46,0,0,1-2.69-11.74q0-8.57,4.68-13.8a30.66,30.66,0,0,1,12-8.09,64.27,64.27,0,0,1,16.42-3.81,169.52,169.52,0,0,1,17.61-.95v-1.27q0-5.86-4.12-8.64a17.82,17.82,0,0,0-10.16-2.78,25.24,25.24,0,0,0-10.71,2.38,34.35,34.35,0,0,0-8.8,5.71ZM767.22,618h-3.33c-2.85,0-5.74.14-8.64.4a36,36,0,0,0-7.78,1.51,14.36,14.36,0,0,0-5.63,3.25,7.48,7.48,0,0,0-2.22,5.63,6.83,6.83,0,0,0,1,3.81,8,8,0,0,0,2.62,2.54,11,11,0,0,0,3.65,1.34,20.46,20.46,0,0,0,4,.4q7.93,0,12.14-4.36t4.2-11.82Z"/><path class="cls-2" d="M808.4,652.45V532.52h26.5V652.45Z"/></svg>