<?xml version="1.0" encoding="utf-8"?>
<!-- Generator: Adobe Illustrator 23.1.1, SVG Export Plug-In . SVG Version: 6.00 Build 0)  -->
<svg version="1.1" id="Layer_1" xmlns="http://www.w3.org/2000/svg" xmlns:xlink="http://www.w3.org/1999/xlink" x="0px" y="0px"
	 viewBox="0 0 476 536.56" style="enable-background:new 0 0 476 536.56;" xml:space="preserve">
<style type="text/css">
	.st0{fill:#2E70AF;}
	.st1{fill:#333A65;}
	.st2{fill:none;stroke:#FFFFFF;stroke-width:2.15;stroke-linecap:round;stroke-linejoin:round;}
	.st3{fill:none;stroke:#FFFFFF;stroke-width:2.15;stroke-miterlimit:10;}
	.st4{fill:#FFFFFF;}
</style>
<title>admiral_logo_final</title>
<polygon class="st0" points="225.34,237.27 225.34,224.89 259.57,211.78 293.08,224.16 293.08,237.27 259.57,227.07 "/>
<polyline class="st1" points="259.57,227.07 225.34,237.27 225.34,224.89 259.57,211.78 "/>
<path class="st1" d="M256.11,131c-2.81-1.21-6.71-1.83-11.59-1.83c-28.72,0-82.68,21.14-83.22,21.36
	c-11.05,3.66-21.3,5.47-30.67,5.47c-25.12,0-34.93-13.14-35.34-13.7l-0.8-1.1l29.72-10L113.58,96l2.56,2.12
	c7.15,5.94,16.38,9,27.42,9c24,0,48.67-14.26,48.92-14.41c12.61-7,25.64-10.48,38.72-10.48c8.51-0.04,16.96,1.5,24.91,4.54v-9
	c0-1.74,1.42-3.15,3.16-3.14c1.73,0,3.14,1.41,3.14,3.14v128l-2.89-1.07l-3.41,1.31L256.11,131z"/>
<path class="st1" d="M259.26,75.54c1.19,0,2.15,0.96,2.15,2.15c0,0,0,0,0,0v126.53l-1.9-0.7l-2.4,0.92v-74.09
	c-3.16-1.53-7.49-2.18-12.59-2.18c-29.25,0-83.59,21.43-83.59,21.43c-11.95,4-22,5.44-30.3,5.44c-24.9,0-34.53-13.29-34.53-13.29
	l29.35-9.87l-9.95-33c8.16,6.77,18.08,9.18,28.06,9.18C168.09,108,193,93.48,193,93.48c14.28-7.88,27.39-10.35,38.22-10.35
	c8.88-0.04,17.68,1.66,25.91,5V77.69c0-1.19,0.96-2.15,2.15-2.15l0,0 M259.28,73.54c-2.29,0-4.15,1.86-4.15,4.15c0,0,0,0,0,0v7.54
	c-7.67-2.74-15.76-4.13-23.91-4.1c-13.25,0-26.44,3.56-39.18,10.59c-0.29,0.17-24.78,14.3-48.46,14.3c-10.8,0-19.81-2.94-26.78-8.72
	l-5.11-4.23l1.91,6.35l9.4,31.19l-27.52,9.25l-2.58,0.87l1.6,2.2C94.9,143.5,105,157,130.63,157c9.42,0,19.83-1.87,30.93-5.55h0.06
	h0.05c0.54-0.22,54.32-21.29,82.85-21.29c3.59-0.12,7.17,0.39,10.59,1.5v75.67l2.71-1l1.71-0.65l1.18,0.44l2.7,1V77.69
	c0-2.29-1.86-4.15-4.15-4.15l0,0H259.28z"/>
<polygon class="st0" points="194.74,282.38 194.74,258.34 259.57,234.3 322.22,256.15 322.22,282.38 260.3,257.22 "/>
<polyline class="st1" points="260.3,257.22 194.74,282.38 194.74,258.34 259.57,234.3 "/>
<path class="st0" d="M124.18,317.68l137-50.82l131.46,50.82l-18.78,30.94l-6.63,45.29c0,0,0,15.47-3.31,18.78
	s-101.64,64.07-205.48,0c0,0-3.32-6.63-4.42-19.89l-6.08-41.42L124.18,317.68z"/>
<path class="st1" d="M261.77,441.9c-31.2,0.38-66.93-6.74-103.34-29.21c0,0-3.32-6.63-4.42-19.89l-6.08-41.42l-23.75-33.7l137-50.82
	"/>
<line class="st2" x1="229.24" y1="365.3" x2="262.3" y2="358.8"/>
<line class="st2" x1="245.09" y1="387.79" x2="262.3" y2="357.99"/>
<line class="st2" x1="280.05" y1="388.33" x2="262.43" y2="357.99"/>
<line class="st2" x1="296.85" y1="364.49" x2="262.16" y2="357.99"/>
<line class="st2" x1="289.12" y1="335.22" x2="261.89" y2="357.99"/>
<line class="st2" x1="234.25" y1="336.04" x2="261.89" y2="357.99"/>
<circle class="st3" cx="262.18" cy="358.01" r="34.3"/>
<line class="st2" x1="261.89" y1="321.81" x2="261.89" y2="357.99"/>
<path class="st4" d="M261.92,330.29c15.29-0.01,27.68,12.38,27.69,27.67c0.01,15.29-12.38,27.68-27.67,27.69
	c-15.28,0.01-27.67-12.37-27.69-27.65c0-15.28,12.39-27.67,27.67-27.68 M261.92,328.17c-16.47,0-29.83,13.36-29.83,29.83
	c0,16.47,13.36,29.83,29.83,29.83c16.47,0,29.83-13.36,29.83-29.83C291.73,341.53,278.39,328.19,261.92,328.17z"/>
<circle class="st4" cx="262.33" cy="358.24" r="3.81"/>
<path class="st4" d="M258.87,321.84h6.12c0.33,0,0.59,0.26,0.59,0.59v0.33c0,0.33-0.26,0.59-0.59,0.59h-6.12
	c-0.33,0-0.59-0.26-0.59-0.59v-0.33C258.28,322.1,258.54,321.84,258.87,321.84z"/>
<path class="st4" d="M260.16,321.84c0,0-0.75-0.5,0-1c-0.17-0.76-0.08-1.56,0.25-2.27c0.37-0.83,0.46-1.76,0.26-2.64
	c0,0-2.94-8.93,1.5-8.93c4,0,1.39,8.93,1.39,8.93c-0.22,0.92-0.18,1.88,0.12,2.77c0.33,0.68,0.33,1.46,0,2.14
	c0.3,0.17,0.41,0.56,0.24,0.86c-0.03,0.05-0.07,0.1-0.11,0.14H260.16z"/>
<path class="st4" d="M231.81,337.94l3.79-4.81c0.2-0.26,0.57-0.3,0.83-0.1l0.26,0.2c0.26,0.2,0.3,0.57,0.1,0.83l-3.79,4.81
	c-0.2,0.26-0.57,0.3-0.83,0.1l-0.26-0.2C231.65,338.57,231.6,338.19,231.81,337.94z"/>
<path class="st4" d="M232.61,336.91c0,0-0.86,0.29-0.79-0.62c-0.71-0.34-1.28-0.9-1.62-1.6c-0.42-0.8-1.1-1.45-1.92-1.83
	c0,0-8.84-3.22-6.09-6.71c2.49-3.16,7.88,4.44,7.88,4.44c0.59,0.74,1.36,1.29,2.25,1.61c0.73,0.16,1.35,0.65,1.68,1.32
	c0.33-0.13,0.7,0.03,0.83,0.36c0.02,0.05,0.03,0.11,0.04,0.17L232.61,336.91z"/>
<path class="st4" d="M227.56,369.16l-1.29-5.98c-0.07-0.32,0.13-0.63,0.45-0.7l0.32-0.07c0.32-0.07,0.63,0.13,0.7,0.45l1.29,5.98
	c0.07,0.32-0.13,0.63-0.45,0.7l-0.32,0.07C227.94,369.68,227.63,369.48,227.56,369.16z"/>
<path class="st4" d="M227.3,367.89c0,0-0.34,0.84-1,0.21c-0.71,0.33-1.5,0.41-2.26,0.24c-0.89-0.19-1.82-0.08-2.64,0.31
	c0,0-8.11,4.76-9,0.41c-0.85-3.93,8.44-3.24,8.44-3.24c0.94,0.02,1.87-0.23,2.68-0.71c0.59-0.46,1.36-0.62,2.09-0.45
	c0.1-0.33,0.45-0.52,0.79-0.42c0.06,0.02,0.11,0.04,0.16,0.08L227.3,367.89z"/>
<path class="st4" d="M295.62,367.41l1.09-6.02c0.06-0.32,0.36-0.53,0.69-0.48l0.32,0.06c0.32,0.06,0.53,0.36,0.48,0.69l-1.09,6.02
	c-0.06,0.32-0.36,0.53-0.69,0.48l-0.32-0.06C295.78,368.03,295.56,367.73,295.62,367.41z"/>
<path class="st4" d="M297.32,366.38c0,0,0.36,0.83,1,0.18c0.72,0.3,1.52,0.35,2.28,0.15c0.88-0.22,1.81-0.14,2.64,0.22
	c0,0,8.27,4.48,9.06,0.1c0.71-4-8.55-2.95-8.55-2.95c-0.94,0.05-1.87-0.16-2.7-0.61c-0.61-0.44-1.38-0.58-2.1-0.38
	c-0.1-0.33-0.46-0.52-0.79-0.41c-0.08,0.02-0.15,0.06-0.21,0.11L297.32,366.38z"/>
<path class="st4" d="M290.46,338.12l-3.86-4.75c-0.21-0.25-0.17-0.62,0.09-0.83l0.26-0.21c0.25-0.21,0.62-0.17,0.83,0.09l3.86,4.75
	c0.21,0.25,0.17,0.62-0.09,0.83l-0.26,0.21C291.04,338.41,290.67,338.37,290.46,338.12z"/>
<path class="st4" d="M290.87,336.15c0,0,0.87,0.27,0.78-0.63c0.7-0.35,1.26-0.92,1.6-1.62c0.41-0.81,1.08-1.47,1.9-1.86
	c0,0,8.78-3.35,6-6.8c-2.54-3.13-7.81,4.55-7.81,4.55c-0.57,0.75-1.35,1.31-2.23,1.64c-0.73,0.18-1.34,0.67-1.66,1.35
	c-0.33-0.12-0.7,0.05-0.82,0.38c-0.02,0.05-0.03,0.11-0.04,0.16L290.87,336.15z"/>
<path class="st4" d="M242.82,386.88l5.22,3.19c0.28,0.17,0.37,0.53,0.2,0.81l-0.17,0.28c-0.17,0.28-0.53,0.37-0.81,0.2l-5.22-3.19
	c-0.28-0.17-0.37-0.53-0.2-0.81l0.17-0.28C242.17,386.8,242.54,386.71,242.82,386.88z"/>
<path class="st4" d="M243.18,388.83c0,0-0.91,0-0.53,0.85c-0.56,0.56-0.91,1.29-1,2.07c-0.12,0.9-0.53,1.74-1.16,2.39
	c0,0-7.16,6.09-3.37,8.41c3.44,2.09,5.84-6.91,5.84-6.91c0.29-0.9,0.82-1.69,1.54-2.3c0.63-0.41,1.04-1.07,1.12-1.82
	c0.35,0,0.64-0.28,0.65-0.63c0-0.05-0.01-0.11-0.02-0.16L243.18,388.83z"/>
<path class="st4" d="M283.06,387.53l-5.27,3.11c-0.28,0.17-0.64,0.07-0.81-0.21l-0.17-0.28c-0.17-0.28-0.07-0.64,0.21-0.81
	l5.27-3.11c0.28-0.17,0.64-0.07,0.81,0.21l0.17,0.28C283.44,387,283.34,387.36,283.06,387.53z"/>
<path class="st4" d="M282,388.15c0,0,0.9,0.05,0.51,0.87c0.53,0.57,0.86,1.3,0.93,2.07c0.1,0.9,0.5,1.75,1.13,2.41
	c0,0,7.07,6.19,3.24,8.45c-3.47,2.05-5.73-7-5.73-7c-0.28-0.9-0.81-1.7-1.52-2.32c-0.62-0.42-1.02-1.09-1.09-1.84
	c-0.35,0-0.64-0.29-0.64-0.64c0-0.05,0.01-0.11,0.02-0.16L282,388.15z"/>
</svg>
